  0
SECTION
  2
HEADER
  9
$ACADVER
  1
AC1018
  9
$ACADMAINTVER
 70
     0
  9
$DWGCODEPAGE
  3
ANSI_1252
  9
$INSBASE
 10
0.0
 20
0.0
 30
0.0
  9
$EXTMIN
 10
1.000000000000000E+20
 20
1.000000000000000E+20
 30
1.000000000000000E+20
  9
$EXTMAX
 10
-1.000000000000000E+20
 20
-1.000000000000000E+20
 30
-1.000000000000000E+20
  9
$LIMMIN
 10
0.0
 20
0.0
  9
$LIMMAX
 10
12.0
 20
9.0
  9
$ORTHOMODE
 70
     0
  9
$REGENMODE
 70
     1
  9
$FILLMODE
 70
     1
  9
$QTEXTMODE
 70
     0
  9
$MIRRTEXT
 70
     1
  9
$LTSCALE
 40
1.0
  9
$ATTMODE
 70
     1
  9
$TEXTSIZE
 40
0.2
  9
$TRACEWID
 40
0.05
  9
$TEXTSTYLE
  7
Standard
  9
$CLAYER
  8
0
  9
$CELTYPE
  6
ByLayer
  9
$CECOLOR
 62
   256
  9
$CELTSCALE
 40
1.0
  9
$DISPSILH
 70
     0
  9
$DIMSCALE
 40
1.0
  9
$DIMASZ
 40
0.18
  9
$DIMEXO
 40
0.0625
  9
$DIMDLI
 40
0.38
  9
$DIMRND
 40
0.0
  9
$DIMDLE
 40
0.0
  9
$DIMEXE
 40
0.18
  9
$DIMTP
 40
0.0
  9
$DIMTM
 40
0.0
  9
$DIMTXT
 40
0.18
  9
$DIMCEN
 40
0.09
  9
$DIMTSZ
 40
0.0
  9
$DIMTOL
 70
     0
  9
$DIMLIM
 70
     0
  9
$DIMTIH
 70
     1
  9
$DIMTOH
 70
     1
  9
$DIMSE1
 70
     0
  9
$DIMSE2
 70
     0
  9
$DIMTAD
 70
     0
  9
$DIMZIN
 70
     0
  9
$DIMBLK
  1

  9
$DIMASO
 70
     1
  9
$DIMSHO
 70
     1
  9
$DIMPOST
  1

  9
$DIMAPOST
  1

  9
$DIMALT
 70
     0
  9
$DIMALTD
 70
     2
  9
$DIMALTF
 40
25.4
  9
$DIMLFAC
 40
1.0
  9
$DIMTOFL
 70
     0
  9
$DIMTVP
 40
0.0
  9
$DIMTIX
 70
     0
  9
$DIMSOXD
 70
     0
  9
$DIMSAH
 70
     0
  9
$DIMBLK1
  1

  9
$DIMBLK2
  1

  9
$DIMSTYLE
  2
Standard
  9
$DIMCLRD
 70
     0
  9
$DIMCLRE
 70
     0
  9
$DIMCLRT
 70
     0
  9
$DIMTFAC
 40
1.0
  9
$DIMGAP
 40
0.09
  9
$DIMJUST
 70
     0
  9
$DIMSD1
 70
     0
  9
$DIMSD2
 70
     0
  9
$DIMTOLJ
 70
     1
  9
$DIMTZIN
 70
     0
  9
$DIMALTZ
 70
     0
  9
$DIMALTTZ
 70
     0
  9
$DIMUPT
 70
     0
  9
$DIMDEC
 70
     4
  9
$DIMTDEC
 70
     4
  9
$DIMALTU
 70
     2
  9
$DIMALTTD
 70
     2
  9
$DIMTXSTY
  7
Standard
  9
$DIMAUNIT
 70
     0
  9
$DIMADEC
 70
     0
  9
$DIMALTRND
 40
0.0
  9
$DIMAZIN
 70
     0
  9
$DIMDSEP
 70
    46
  9
$DIMATFIT
 70
     3
  9
$DIMFRAC
 70
     0
  9
$DIMLDRBLK
  1

  9
$DIMLUNIT
 70
     2
  9
$DIMLWD
 70
    -2
  9
$DIMLWE
 70
    -2
  9
$DIMTMOVE
 70
     0
  9
$LUNITS
 70
     2
  9
$LUPREC
 70
     4
  9
$SKETCHINC
 40
0.1
  9
$FILLETRAD
 40
0.5
  9
$AUNITS
 70
     0
  9
$AUPREC
 70
     0
  9
$MENU
  1
.
  9
$ELEVATION
 40
0.0
  9
$PELEVATION
 40
0.0
  9
$THICKNESS
 40
0.0
  9
$LIMCHECK
 70
     0
  9
$CHAMFERA
 40
0.5
  9
$CHAMFERB
 40
0.5
  9
$CHAMFERC
 40
1.0
  9
$CHAMFERD
 40
0.0
  9
$SKPOLY
 70
     0
  9
$TDCREATE
 40
2457744.530000185
  9
$TDUCREATE
 40
2457744.488333519
  9
$TDUPDATE
 40
2457744.530000197
  9
$TDUUPDATE
 40
2457744.48833353
  9
$TDINDWG
 40
0.0000000116
  9
$TDUSRTIMER
 40
0.0000000116
  9
$USRTIMER
 70
     1
  9
$ANGBASE
 50
0.0
  9
$ANGDIR
 70
     0
  9
$PDMODE
 70
     0
  9
$PDSIZE
 40
0.0
  9
$PLINEWID
 40
0.0
  9
$SPLFRAME
 70
     0
  9
$SPLINETYPE
 70
     6
  9
$SPLINESEGS
 70
     8
  9
$HANDSEED
  5
EC
  9
$SURFTAB1
 70
     6
  9
$SURFTAB2
 70
     6
  9
$SURFTYPE
 70
     6
  9
$SURFU
 70
     6
  9
$SURFV
 70
     6
  9
$UCSBASE
  2

  9
$UCSNAME
  2

  9
$UCSORG
 10
0.0
 20
0.0
 30
0.0
  9
$UCSXDIR
 10
1.0
 20
0.0
 30
0.0
  9
$UCSYDIR
 10
0.0
 20
1.0
 30
0.0
  9
$UCSORTHOREF
  2

  9
$UCSORTHOVIEW
 70
     0
  9
$UCSORGTOP
 10
0.0
 20
0.0
 30
0.0
  9
$UCSORGBOTTOM
 10
0.0
 20
0.0
 30
0.0
  9
$UCSORGLEFT
 10
0.0
 20
0.0
 30
0.0
  9
$UCSORGRIGHT
 10
0.0
 20
0.0
 30
0.0
  9
$UCSORGFRONT
 10
0.0
 20
0.0
 30
0.0
  9
$UCSORGBACK
 10
0.0
 20
0.0
 30
0.0
  9
$PUCSBASE
  2

  9
$PUCSNAME
  2

  9
$PUCSORG
 10
0.0
 20
0.0
 30
0.0
  9
$PUCSXDIR
 10
1.0
 20
0.0
 30
0.0
  9
$PUCSYDIR
 10
0.0
 20
1.0
 30
0.0
  9
$PUCSORTHOREF
  2

  9
$PUCSORTHOVIEW
 70
     0
  9
$PUCSORGTOP
 10
0.0
 20
0.0
 30
0.0
  9
$PUCSORGBOTTOM
 10
0.0
 20
0.0
 30
0.0
  9
$PUCSORGLEFT
 10
0.0
 20
0.0
 30
0.0
  9
$PUCSORGRIGHT
 10
0.0
 20
0.0
 30
0.0
  9
$PUCSORGFRONT
 10
0.0
 20
0.0
 30
0.0
  9
$PUCSORGBACK
 10
0.0
 20
0.0
 30
0.0
  9
$USERI1
 70
     0
  9
$USERI2
 70
     0
  9
$USERI3
 70
     0
  9
$USERI4
 70
     0
  9
$USERI5
 70
     0
  9
$USERR1
 40
0.0
  9
$USERR2
 40
0.0
  9
$USERR3
 40
0.0
  9
$USERR4
 40
0.0
  9
$USERR5
 40
0.0
  9
$WORLDVIEW
 70
     1
  9
$SHADEDGE
 70
     3
  9
$SHADEDIF
 70
    70
  9
$TILEMODE
 70
     1
  9
$MAXACTVP
 70
    64
  9
$PINSBASE
 10
0.0
 20
0.0
 30
0.0
  9
$PLIMCHECK
 70
     0
  9
$PEXTMIN
 10
1.000000000000000E+20
 20
1.000000000000000E+20
 30
1.000000000000000E+20
  9
$PEXTMAX
 10
-1.000000000000000E+20
 20
-1.000000000000000E+20
 30
-1.000000000000000E+20
  9
$PLIMMIN
 10
0.0
 20
0.0
  9
$PLIMMAX
 10
12.0
 20
9.0
  9
$UNITMODE
 70
     0
  9
$VISRETAIN
 70
     1
  9
$PLINEGEN
 70
     0
  9
$PSLTSCALE
 70
     1
  9
$TREEDEPTH
 70
  3020
  9
$CMLSTYLE
  2
Standard
  9
$CMLJUST
 70
     0
  9
$CMLSCALE
 40
1.0
  9
$PROXYGRAPHICS
 70
     1
  9
$MEASUREMENT
 70
     0
  9
$CELWEIGHT
370
    -1
  9
$ENDCAPS
280
     0
  9
$JOINSTYLE
280
     0
  9
$LWDISPLAY
290
     1
  9
$INSUNITS
 70
     1
  9
$HYPERLINKBASE
  1

  9
$STYLESHEET
  1

  9
$XEDIT
290
     1
  9
$CEPSNTYPE
380
     0
  9
$PSTYLEMODE
290
     1
  9
$FINGERPRINTGUID
  2
{01B26A5E-77F5-427D-B001-DFA93B359062}
  9
$VERSIONGUID
  2
{FAEB1C32-E019-11D5-929B-00C0DF256EC4}
  9
$EXTNAMES
290
     1
  9
$PSVPSCALE
 40
0.0
  9
$OLESTARTUP
290
     0
  9
$SORTENTS
280
   127
  9
$INDEXCTL
280
     0
  9
$HIDETEXT
280
     1
  9
$XCLIPFRAME
290
     0
  9
$HALOGAP
280
     0
  9
$OBSCOLOR
 70
   257
  9
$OBSLTYPE
280
     0
  9
$INTERSECTIONDISPLAY
280
     0
  9
$INTERSECTIONCOLOR
 70
   257
  9
$DIMASSOC
280
     2
  9
$PROJECTNAME
  1

  0
ENDSEC
  0
SECTION
  2
CLASSES
  0
CLASS
  1
ACDBDICTIONARYWDFLT
  2
AcDbDictionaryWithDefault
  3
ObjectDBX Classes
 90
        0
 91
        3
280
     0
281
     0
  0
CLASS
  1
VISUALSTYLE
  2
AcDbVisualStyle
  3
ObjectDBX Classes
 90
     4095
 91
        3
280
     0
281
     0
  0
ENDSEC
  0
SECTION
  2
TABLES
  0
TABLE
  2
VPORT
  5
8
330
0
100
AcDbSymbolTable
 70
     1
  0
VPORT
  5
29
330
8
100
AcDbSymbolTableRecord
100
AcDbViewportTableRecord
  2
*Active
 70
     0
 10
0.0
 20
0.0
 11
1.0
 21
1.0
 12
0.0
 22
0.0
 13
0.0
 23
0.0
 14
0.5
 24
0.5
 15
0.5
 25
0.5
 16
0.0
 26
0.0
 36
1.0
 17
130.0003336263541
 27
-84.99997963369792
 37
0.0
 40
169.9999592673958
 41
1.529416056175335
 42
50.0
 43
0.0
 44
0.0
 50
0.0
 51
0.0
 71
     0
 72
   100
 73
     1
 74
     3
 75
     0
 76
     0
 77
     0
 78
     0
281
     0
 65
     1
110
0.0
120
0.0
130
0.0
111
1.0
121
0.0
131
0.0
112
0.0
122
1.0
132
0.0
 79
     0
146
0.0
  0
ENDTAB
  0
TABLE
  2
LTYPE
  5
5
330
0
100
AcDbSymbolTable
 70
     1
  0
LTYPE
  5
14
330
5
100
AcDbSymbolTableRecord
100
AcDbLinetypeTableRecord
  2
ByBlock
 70
     0
  3

 72
    65
 73
     0
 40
0.0
  0
LTYPE
  5
15
330
5
100
AcDbSymbolTableRecord
100
AcDbLinetypeTableRecord
  2
ByLayer
 70
     0
  3

 72
    65
 73
     0
 40
0.0
  0
LTYPE
  5
16
330
5
100
AcDbSymbolTableRecord
100
AcDbLinetypeTableRecord
  2
Continuous
 70
     0
  3
Solid line
 72
    65
 73
     0
 40
0.0
  0
ENDTAB
  0
TABLE
  2
LAYER
  5
2
330
0
100
AcDbSymbolTable
 70
     5
  0
LAYER
  5
10
330
2
100
AcDbSymbolTableRecord
100
AcDbLayerTableRecord
  2
0
 70
     0
 62
     7
  6
Continuous
370
    -3
390
F
  0
LAYER
  5
3B
330
2
100
AcDbSymbolTableRecord
100
AcDbLayerTableRecord
  2
Layer 4
 70
     1
 62
     7
  6
Continuous
370
    -3
390
F
  0
LAYER
  5
45
330
2
100
AcDbSymbolTableRecord
100
AcDbLayerTableRecord
  2
Layer 3
 70
     1
 62
     7
  6
Continuous
370
    -3
390
F
  0
LAYER
  5
85
330
2
100
AcDbSymbolTableRecord
100
AcDbLayerTableRecord
  2
Layer 1
 70
     0
 62
     7
  6
Continuous
370
    -3
390
F
  0
LAYER
  5
9D
330
2
100
AcDbSymbolTableRecord
100
AcDbLayerTableRecord
  2
Layer 2
 70
     0
 62
     7
  6
Continuous
370
    -3
390
F
  0
ENDTAB
  0
TABLE
  2
STYLE
  5
3
330
0
100
AcDbSymbolTable
 70
     1
  0
STYLE
  5
11
330
3
100
AcDbSymbolTableRecord
100
AcDbTextStyleTableRecord
  2
Standard
 70
     0
 40
0.0
 41
1.0
 50
0.0
 71
     0
 42
0.2
  3
txt
  4

  0
ENDTAB
  0
TABLE
  2
VIEW
  5
6
330
0
100
AcDbSymbolTable
 70
     0
  0
ENDTAB
  0
TABLE
  2
UCS
  5
7
330
0
100
AcDbSymbolTable
 70
     0
  0
ENDTAB
  0
TABLE
  2
APPID
  5
9
330
0
100
AcDbSymbolTable
 70
     1
  0
APPID
  5
12
330
9
100
AcDbSymbolTableRecord
100
AcDbRegAppTableRecord
  2
ACAD
 70
     0
  0
ENDTAB
  0
TABLE
  2
DIMSTYLE
  5
A
330
0
100
AcDbSymbolTable
 70
     1
100
AcDbDimStyleTable
  0
DIMSTYLE
105
27
330
A
100
AcDbSymbolTableRecord
100
AcDbDimStyleTableRecord
  2
Standard
 70
     0
340
11
  0
ENDTAB
  0
TABLE
  2
BLOCK_RECORD
  5
1
330
0
100
AcDbSymbolTable
 70
     5
  0
BLOCK_RECORD
  5
1F
330
1
100
AcDbSymbolTableRecord
100
AcDbBlockTableRecord
  2
*Model_Space
340
22
  0
BLOCK_RECORD
  5
1B
330
1
100
AcDbSymbolTableRecord
100
AcDbBlockTableRecord
  2
*Paper_Space
340
1E
  0
BLOCK_RECORD
  5
23
330
1
100
AcDbSymbolTableRecord
100
AcDbBlockTableRecord
  2
*Paper_Space0
340
26
  0
BLOCK_RECORD
  5
9E
330
1
100
AcDbSymbolTableRecord
100
AcDbBlockTableRecord
  2
block 2
340
0
102
{BLKREFS
331
9F
102
}
  0
BLOCK_RECORD
  5
A4
330
1
100
AcDbSymbolTableRecord
100
AcDbBlockTableRecord
  2
block 3
340
0
102
{BLKREFS
331
A5
102
}
  0
BLOCK_RECORD
  5
AA
330
1
100
AcDbSymbolTableRecord
100
AcDbBlockTableRecord
  2
block 4
340
0
102
{BLKREFS
331
AB
102
}
  0
BLOCK_RECORD
  5
D7
330
1
100
AcDbSymbolTableRecord
100
AcDbBlockTableRecord
  2
block 5
340
0
102
{BLKREFS
331
D8
102
}
  0
ENDTAB
  0
ENDSEC
  0
SECTION
  2
BLOCKS
  0
BLOCK
  5
20
330
1F
100
AcDbEntity
  8
0
100
AcDbBlockBegin
  2
*Model_Space
 70
     0
 71
     0
 10
0.0
 20
0.0
 30
0.0
  3
*Model_Space
  1

  0
ENDBLK
  5
21
330
1F
100
AcDbEntity
  8
0
100
AcDbBlockEnd
  0
BLOCK
  5
1C
330
1B
100
AcDbEntity
 67
     1
  8
0
100
AcDbBlockBegin
  2
*Paper_Space
 70
     0
 71
     0
 10
0.0
 20
0.0
 30
0.0
  3
*Paper_Space
  1

  0
ENDBLK
  5
1D
330
1B
100
AcDbEntity
 67
     1
  8
0
100
AcDbBlockEnd
  0
BLOCK
  5
24
330
23
100
AcDbEntity
  8
0
100
AcDbBlockBegin
  2
*Paper_Space0
 70
     0
 71
     0
 10
0.0
 20
0.0
 30
0.0
  3
*Paper_Space0
  1

  0
ENDBLK
  5
25
330
23
100
AcDbEntity
  8
0
100
AcDbBlockEnd
  0
BLOCK
  5
A0
330
9E
100
AcDbEntity
  8
0
100
AcDbBlockBegin
  2
block 2
 70
     0
 71
     0
 10
0.0
 20
0.0
 30
0.0
  3
block 2
  1

  0
SPLINE
  5
A2
330
9E
100
AcDbEntity
  8
Layer 2
 62
    18
420
    65793
370
    35
100
AcDbSpline
210
0.0
220
0.0
230
1.0
 70
    11
 71
     3
 72
    41
 73
    37
 74
     0
 42
0.0000000001
 43
0.0000000001
 40
0.0
 40
0.0
 40
0.0
 40
0.0
 40
1.0
 40
1.0
 40
1.0
 40
2.0
 40
2.0
 40
2.0
 40
3.0
 40
3.0
 40
3.0
 40
4.0
 40
4.0
 40
4.0
 40
5.0
 40
5.0
 40
5.0
 40
6.0
 40
6.0
 40
6.0
 40
7.0
 40
7.0
 40
7.0
 40
8.0
 40
8.0
 40
8.0
 40
9.0
 40
9.0
 40
9.0
 40
10.0
 40
10.0
 40
10.0
 40
11.0
 40
11.0
 40
11.0
 40
12.0
 40
12.0
 40
12.0
 40
12.0
 10
168.3776638033917
 20
-31.87247313656313
 30
0.0
 10
168.3776638033917
 20
-31.87247313656313
 30
0.0
 10
168.3776638033917
 20
-41.63949109202068
 30
0.0
 10
168.3776638033917
 20
-44.43019068984731
 30
0.0
 10
168.3776638033917
 20
-47.22071803289968
 30
0.0
 10
171.1678466368955
 20
-50.01107312117779
 30
0.0
 10
173.9583739799479
 20
-50.01107312117779
 30
0.0
 10
176.7492458325488
 20
-50.01107312117779
 30
0.0
 10
190.7018825478106
 20
-50.01107312117779
 30
0.0
 10
193.492409890863
 20
-50.01107312117779
 30
0.0
 10
196.2832817434639
 20
-50.01107312117779
 30
0.0
 10
199.0734645769678
 20
-47.22071803289968
 30
0.0
 10
199.0734645769678
 20
-44.43019068984731
 30
0.0
 10
199.0734645769678
 20
-41.63949109202068
 30
0.0
 10
199.0734645769678
 20
-31.87247313656313
 30
0.0
 10
199.0734645769678
 20
-31.87247313656313
 30
0.0
 10
199.0734645769678
 20
-31.87247313656313
 30
0.0
 10
201.8639919200201
 20
-31.87247313656313
 30
0.0
 10
201.8639919200201
 20
-31.87247313656313
 30
0.0
 10
201.8639919200201
 20
-31.87247313656313
 30
0.0
 10
201.8639919200201
 20
-40.2442274204945
 30
0.0
 10
201.8639919200201
 20
-44.43019068984731
 30
0.0
 10
201.8639919200201
 20
-48.61598170442587
 30
0.0
 10
197.6782009054416
 20
-52.80177271900442
 30
0.0
 10
193.492409890863
 20
-52.80177271900442
 30
0.0
 10
189.3066188762845
 20
-52.80177271900442
 30
0.0
 10
178.144509504075
 20
-52.80177271900442
 30
0.0
 10
173.9583739799479
 20
-52.80177271900442
 30
0.0
 10
169.7725829653694
 20
-52.80177271900442
 30
0.0
 10
165.5867919507908
 20
-48.61598170442587
 30
0.0
 10
165.5867919507908
 20
-44.43019068984731
 30
0.0
 10
165.5867919507908
 20
-40.2442274204945
 30
0.0
 10
165.5867919507908
 20
-31.87247313656313
 30
0.0
 10
165.5867919507908
 20
-31.87247313656313
 30
0.0
 10
165.5867919507908
 20
-31.87247313656313
 30
0.0
 10
168.3776638033917
 20
-31.87247313656313
 30
0.0
 10
168.3776638033917
 20
-31.87247313656313
 30
0.0
  0
SPLINE
  5
A3
330
9E
100
AcDbEntity
  8
Layer 2
 62
    18
420
    65793
370
    35
100
AcDbSpline
210
0.0
220
0.0
230
1.0
 70
    11
 71
     3
 72
    32
 73
    28
 74
     0
 42
0.0000000001
 43
0.0000000001
 40
0.0
 40
0.0
 40
0.0
 40
0.0
 40
1.0
 40
1.0
 40
1.0
 40
2.0
 40
2.0
 40
2.0
 40
3.0
 40
3.0
 40
3.0
 40
4.0
 40
4.0
 40
4.0
 40
5.0
 40
5.0
 40
5.0
 40
6.0
 40
6.0
 40
6.0
 40
7.0
 40
7.0
 40
7.0
 40
8.0
 40
8.0
 40
8.0
 40
9.0
 40
9.0
 40
9.0
 40
9.0
 10
164.1915282792646
 20
-29.08194579351077
 30
0.0
 10
164.1915282792646
 20
-24.89615477893221
 30
0.0
 10
168.3776638033917
 20
-23.50071885263177
 30
0.0
 10
168.3776638033917
 20
-23.50071885263177
 30
0.0
 10
168.3776638033917
 20
-23.50071885263177
 30
0.0
 10
182.3303005186535
 20
-23.50071885263177
 30
0.0
 10
182.3303005186535
 20
-23.50071885263177
 30
0.0
 10
182.3303005186535
 20
-23.50071885263177
 30
0.0
 10
180.9350368471273
 20
-22.10562743587984
 30
0.0
 10
180.9350368471273
 20
-20.7101915095794
 30
0.0
 10
180.9350368471273
 20
-19.31492783805321
 30
0.0
 10
182.3306450282021
 20
-19.31492783805321
 30
0.0
 10
183.7255641901797
 20
-19.31492783805321
 30
0.0
 10
185.1208278617059
 20
-19.31492783805321
 30
0.0
 10
186.5160915332321
 20
-19.31492783805321
 30
0.0
 10
186.5160915332321
 20
-20.7101915095794
 30
0.0
 10
186.5160915332321
 20
-22.10562743587984
 30
0.0
 10
185.1208278617059
 20
-23.50071885263177
 30
0.0
 10
185.1208278617059
 20
-23.50071885263177
 30
0.0
 10
185.1208278617059
 20
-23.50071885263177
 30
0.0
 10
199.0738090865163
 20
-23.50071885263177
 30
0.0
 10
199.0738090865163
 20
-23.50071885263177
 30
0.0
 10
199.0738090865163
 20
-23.50071885263177
 30
0.0
 10
203.2596001010948
 20
-24.89615477893221
 30
0.0
 10
203.2596001010948
 20
-29.08194579351077
 30
0.0
 10
203.2596001010948
 20
-29.08194579351077
 30
0.0
 10
164.1915282792646
 20
-29.08194579351077
 30
0.0
 10
164.1915282792646
 20
-29.08194579351077
 30
0.0
  0
ENDBLK
  5
A1
330
9E
100
AcDbEntity
  8
0
100
AcDbBlockEnd
  0
BLOCK
  5
A6
330
A4
100
AcDbEntity
  8
0
100
AcDbBlockBegin
  2
block 3
 70
     0
 71
     0
 10
0.0
 20
0.0
 30
0.0
  3
block 3
  1

  0
SPLINE
  5
A8
330
A4
100
AcDbEntity
  8
Layer 2
 62
    18
420
    65793
370
    35
100
AcDbSpline
210
0.0
220
0.0
230
1.0
 70
    11
 71
     3
 72
    41
 73
    37
 74
     0
 42
0.0000000001
 43
0.0000000001
 40
0.0
 40
0.0
 40
0.0
 40
0.0
 40
1.0
 40
1.0
 40
1.0
 40
2.0
 40
2.0
 40
2.0
 40
3.0
 40
3.0
 40
3.0
 40
4.0
 40
4.0
 40
4.0
 40
5.0
 40
5.0
 40
5.0
 40
6.0
 40
6.0
 40
6.0
 40
7.0
 40
7.0
 40
7.0
 40
8.0
 40
8.0
 40
8.0
 40
9.0
 40
9.0
 40
9.0
 40
10.0
 40
10.0
 40
10.0
 40
11.0
 40
11.0
 40
11.0
 40
12.0
 40
12.0
 40
12.0
 40
12.0
 10
246.2502576424305
 20
-61.49030353280451
 30
0.0
 10
246.2502576424305
 20
-61.49030353280451
 30
0.0
 10
243.2864419964701
 20
-61.49030353280451
 30
0.0
 10
243.2864419964701
 20
-61.49030353280451
 30
0.0
 10
243.2864419964701
 20
-65.93654376606796
 30
0.0
 10
240.3222818409611
 20
-77.79283987855527
 30
0.0
 10
232.9118814521887
 20
-77.79283987855527
 30
0.0
 10
232.9118814521887
 20
-77.79283987855527
 30
0.0
 10
231.4294568648857
 20
-79.27526446585827
 30
0.0
 10
229.9473767871312
 20
-79.27526446585827
 30
0.0
 10
228.4656412189253
 20
-79.27526446585827
 30
0.0
 10
225.5014810634163
 20
-79.27526446585827
 30
0.0
 10
224.0194009856618
 20
-79.27526446585827
 30
0.0
 10
222.5373209079073
 20
-79.27526446585827
 30
0.0
 10
221.0552408301529
 20
-77.79283987855527
 30
0.0
 10
221.0552408301529
 20
-77.79283987855527
 30
0.0
 10
213.645184950929
 20
-77.79283987855527
 30
0.0
 10
210.68102479542
 20
-65.93654376606796
 30
0.0
 10
210.68102479542
 20
-61.49030353280451
 30
0.0
 10
210.68102479542
 20
-61.49030353280451
 30
0.0
 10
207.7165201303625
 20
-61.49030353280451
 30
0.0
 10
207.7165201303625
 20
-61.49030353280451
 30
0.0
 10
207.7165201303625
 20
-68.90053166680265
 30
0.0
 10
212.162760363626
 20
-80.75734454361275
 30
0.0
 10
219.5731607523984
 20
-80.75734454361275
 30
0.0
 10
219.5731607523984
 20
-80.75734454361275
 30
0.0
 10
219.5731607523984
 20
-82.23908011181871
 30
0.0
 10
219.5731607523984
 20
-82.23908011181871
 30
0.0
 10
219.5731607523984
 20
-82.23908011181871
 30
0.0
 10
234.3936170203947
 20
-82.23908011181871
 30
0.0
 10
234.3936170203947
 20
-82.23908011181871
 30
0.0
 10
234.3936170203947
 20
-82.23908011181871
 30
0.0
 10
234.3936170203947
 20
-80.75734454361275
 30
0.0
 10
234.3936170203947
 20
-80.75734454361275
 30
0.0
 10
241.8040174091671
 20
-80.75734454361275
 30
0.0
 10
246.2502576424305
 20
-68.9007039215769
 30
0.0
 10
246.2502576424305
 20
-61.49030353280451
 30
0.0
  0
SPLINE
  5
A9
330
A4
100
AcDbEntity
  8
Layer 2
 62
    18
420
    65793
370
    35
100
AcDbSpline
210
0.0
220
0.0
230
1.0
 70
    11
 71
     3
 72
    23
 73
    19
 74
     0
 42
0.0000000001
 43
0.0000000001
 40
0.0
 40
0.0
 40
0.0
 40
0.0
 40
1.0
 40
1.0
 40
1.0
 40
2.0
 40
2.0
 40
2.0
 40
3.0
 40
3.0
 40
3.0
 40
4.0
 40
4.0
 40
4.0
 40
5.0
 40
5.0
 40
5.0
 40
6.0
 40
6.0
 40
6.0
 40
6.0
 10
207.1511799612331
 20
-48.74999591880209
 30
0.0
 10
207.1511799612331
 20
-48.74999591880209
 30
0.0
 10
224.9357963847383
 20
-63.57062444157263
 30
0.0
 10
224.9357963847383
 20
-63.57062444157263
 30
0.0
 10
224.9357963847383
 20
-63.57062444157263
 30
0.0
 10
236.7924370067741
 20
-63.57062444157263
 30
0.0
 10
236.7924370067741
 20
-63.57062444157263
 30
0.0
 10
236.7924370067741
 20
-63.57062444157263
 30
0.0
 10
233.8279323417166
 20
-68.0166924200618
 30
0.0
 10
229.3820366180017
 20
-68.0166924200618
 30
0.0
 10
224.9357963847383
 20
-68.0166924200618
 30
0.0
 10
223.4537163069838
 20
-66.53461234230733
 30
0.0
 10
223.4537163069838
 20
-66.53461234230733
 30
0.0
 10
223.4537163069838
 20
-66.53461234230733
 30
0.0
 10
205.6687553739301
 20
-51.71398381953679
 30
0.0
 10
205.6687553739301
 20
-51.71398381953679
 30
0.0
 10
205.6687553739301
 20
-51.71398381953679
 30
0.0
 10
207.1511799612331
 20
-48.74999591880209
 30
0.0
 10
207.1511799612331
 20
-48.74999591880209
 30
0.0
  0
ENDBLK
  5
A7
330
A4
100
AcDbEntity
  8
0
100
AcDbBlockEnd
  0
BLOCK
  5
AC
330
AA
100
AcDbEntity
  8
0
100
AcDbBlockBegin
  2
block 4
 70
     0
 71
     0
 10
0.0
 20
0.0
 30
0.0
  3
block 4
  1

  0
SPLINE
  5
AE
330
AA
100
AcDbEntity
  8
Layer 2
 62
    18
420
    65793
370
    35
100
AcDbSpline
210
0.0
220
0.0
230
1.0
 70
    11
 71
     3
 72
    23
 73
    19
 74
     0
 42
0.0000000001
 43
0.0000000001
 40
0.0
 40
0.0
 40
0.0
 40
0.0
 40
1.0
 40
1.0
 40
1.0
 40
2.0
 40
2.0
 40
2.0
 40
3.0
 40
3.0
 40
3.0
 40
4.0
 40
4.0
 40
4.0
 40
5.0
 40
5.0
 40
5.0
 40
6.0
 40
6.0
 40
6.0
 40
6.0
 10
181.4917642775437
 20
-111.48673499817
 30
0.0
 10
181.4917642775437
 20
-111.48673499817
 30
0.0
 10
181.4910752584467
 20
-109.9323079152253
 30
0.0
 10
183.0461913604885
 20
-109.9323079152253
 30
0.0
 10
184.6006184434332
 20
-109.9323079152253
 30
0.0
 10
184.6006184434332
 20
-111.48673499817
 30
0.0
 10
184.6006184434332
 20
-111.48673499817
 30
0.0
 10
184.6006184434332
 20
-111.48673499817
 30
0.0
 10
184.6006184434332
 20
-119.2595594319907
 30
0.0
 10
184.6006184434332
 20
-119.2595594319907
 30
0.0
 10
184.6006184434332
 20
-119.2595594319907
 30
0.0
 10
184.6002739338847
 20
-120.8139865149354
 30
0.0
 10
183.0461913604885
 20
-120.8139865149354
 30
0.0
 10
181.4917642775437
 20
-120.8139865149354
 30
0.0
 10
181.4917642775437
 20
-119.2595594319907
 30
0.0
 10
181.4917642775437
 20
-119.2595594319907
 30
0.0
 10
181.4917642775437
 20
-119.2595594319907
 30
0.0
 10
181.4917642775437
 20
-111.48673499817
 30
0.0
 10
181.4917642775437
 20
-111.48673499817
 30
0.0
  0
SPLINE
  5
AF
330
AA
100
AcDbEntity
  8
Layer 2
 62
    18
420
    65793
370
    35
100
AcDbSpline
210
0.0
220
0.0
230
1.0
 70
    11
 71
     3
 72
    23
 73
    19
 74
     0
 42
0.0000000001
 43
0.0000000001
 40
0.0
 40
0.0
 40
0.0
 40
0.0
 40
1.0
 40
1.0
 40
1.0
 40
2.0
 40
2.0
 40
2.0
 40
3.0
 40
3.0
 40
3.0
 40
4.0
 40
4.0
 40
4.0
 40
5.0
 40
5.0
 40
5.0
 40
6.0
 40
6.0
 40
6.0
 40
6.0
 10
170.9387477871264
 20
-108.4206000162976
 30
0.0
 10
170.9387477871264
 20
-108.4206000162976
 30
0.0
 10
171.5950384770665
 20
-107.0112114532819
 30
0.0
 10
173.0040825305337
 20
-107.6685356718676
 30
0.0
 10
174.4134710935494
 20
-108.3255153809047
 30
0.0
 10
173.7564913845123
 20
-109.7342149248234
 30
0.0
 10
173.7564913845123
 20
-109.7342149248234
 30
0.0
 10
173.7564913845123
 20
-109.7342149248234
 30
0.0
 10
170.4715928393265
 20
-116.7790906826108
 30
0.0
 10
170.4715928393265
 20
-116.7790906826108
 30
0.0
 10
170.4715928393265
 20
-116.7790906826108
 30
0.0
 10
169.8139241111924
 20
-118.1874457169809
 30
0.0
 10
168.4052245672737
 20
-117.5304660079438
 30
0.0
 10
166.996525023355
 20
-116.8738308084552
 30
0.0
 10
167.6535047323922
 20
-115.4651312645365
 30
0.0
 10
167.6535047323922
 20
-115.4651312645365
 30
0.0
 10
167.6535047323922
 20
-115.4651312645365
 30
0.0
 10
170.9387477871264
 20
-108.4206000162976
 30
0.0
 10
170.9387477871264
 20
-108.4206000162976
 30
0.0
  0
SPLINE
  5
B0
330
AA
100
AcDbEntity
  8
Layer 2
 62
    18
420
    65793
370
    35
100
AcDbSpline
210
0.0
220
0.0
230
1.0
 70
    11
 71
     3
 72
    23
 73
    19
 74
     0
 42
0.0000000001
 43
0.0000000001
 40
0.0
 40
0.0
 40
0.0
 40
0.0
 40
1.0
 40
1.0
 40
1.0
 40
2.0
 40
2.0
 40
2.0
 40
3.0
 40
3.0
 40
3.0
 40
4.0
 40
4.0
 40
4.0
 40
5.0
 40
5.0
 40
5.0
 40
6.0
 40
6.0
 40
6.0
 40
6.0
 10
192.3358913364646
 20
-109.7338704152749
 30
0.0
 10
192.3358913364646
 20
-109.7338704152749
 30
0.0
 10
191.678567117879
 20
-108.3255153809047
 30
0.0
 10
193.0879556808947
 20
-107.6681911623191
 30
0.0
 10
194.4969997343619
 20
-107.0108669437334
 30
0.0
 10
195.1543239529475
 20
-108.4199109972006
 30
0.0
 10
195.1543239529475
 20
-108.4199109972006
 30
0.0
 10
195.1543239529475
 20
-108.4199109972006
 30
0.0
 10
198.4392224981333
 20
-115.464786754988
 30
0.0
 10
198.4392224981333
 20
-115.464786754988
 30
0.0
 10
198.4392224981333
 20
-115.464786754988
 30
0.0
 10
199.0955131880733
 20
-116.8731417893581
 30
0.0
 10
197.6868136441547
 20
-117.5301214983952
 30
0.0
 10
196.2784586097846
 20
-118.1874457169809
 30
0.0
 10
195.6214789007474
 20
-116.7787461730623
 30
0.0
 10
195.6214789007474
 20
-116.7787461730623
 30
0.0
 10
195.6214789007474
 20
-116.7787461730623
 30
0.0
 10
192.3358913364646
 20
-109.7338704152749
 30
0.0
 10
192.3358913364646
 20
-109.7338704152749
 30
0.0
  0
SPLINE
  5
B1
330
AA
100
AcDbEntity
  8
Layer 2
 62
    18
420
    65793
370
    35
100
AcDbSpline
210
0.0
220
0.0
230
1.0
 70
    11
 71
     3
 72
    23
 73
    19
 74
     0
 42
0.0000000001
 43
0.0000000001
 40
0.0
 40
0.0
 40
0.0
 40
0.0
 40
1.0
 40
1.0
 40
1.0
 40
2.0
 40
2.0
 40
2.0
 40
3.0
 40
3.0
 40
3.0
 40
4.0
 40
4.0
 40
4.0
 40
5.0
 40
5.0
 40
5.0
 40
6.0
 40
6.0
 40
6.0
 40
6.0
 10
198.5918402281298
 20
-91.27746037214591
 30
0.0
 10
198.5918402281298
 20
-91.27746037214591
 30
0.0
 10
201.7006943940193
 20
-91.27746037214591
 30
0.0
 10
201.7006943940193
 20
-91.27746037214591
 30
0.0
 10
201.7006943940193
 20
-91.27746037214591
 30
0.0
 10
198.5911512090328
 20
-106.8231092397873
 30
0.0
 10
183.0461913604885
 20
-106.8231092397873
 30
0.0
 10
167.5008870023956
 20
-106.8231092397873
 30
0.0
 10
164.3916883269576
 20
-91.27746037214591
 30
0.0
 10
164.3916883269576
 20
-91.27746037214591
 30
0.0
 10
164.3916883269576
 20
-91.27746037214591
 30
0.0
 10
167.5008870023956
 20
-91.27746037214591
 30
0.0
 10
167.5008870023956
 20
-91.27746037214591
 30
0.0
 10
167.5008870023956
 20
-91.27746037214591
 30
0.0
 10
170.6093966587366
 20
-103.7139105643493
 30
0.0
 10
183.0461913604885
 20
-103.7139105643493
 30
0.0
 10
195.4822970431433
 20
-103.7139105643493
 30
0.0
 10
198.5918402281298
 20
-91.27746037214591
 30
0.0
 10
198.5918402281298
 20
-91.27746037214591
 30
0.0
  0
POLYLINE
  5
B2
330
AA
100
AcDbEntity
  8
Layer 2
 62
    18
420
    65793
370
    35
100
AcDb2dPolyline
 66
     1
 10
0.0
 20
0.0
 30
0.0
  0
VERTEX
  5
B3
330
B2
100
AcDbEntity
  8
Layer 2
 62
    18
420
    65793
370
    35
100
AcDbVertex
100
AcDb2dVertex
 10
212.5823729937294
 20
-85.05957978559275
 30
0.0
  0
VERTEX
  5
B4
330
B2
100
AcDbEntity
  8
Layer 2
 62
    18
420
    65793
370
    35
100
AcDbVertex
100
AcDb2dVertex
 10
190.8190157943091
 20
-85.05957978559275
 30
0.0
  0
VERTEX
  5
B5
330
B2
100
AcDbEntity
  8
Layer 2
 62
    18
420
    65793
370
    35
100
AcDbVertex
100
AcDb2dVertex
 10
190.8190157943091
 20
-81.95072561970329
 30
0.0
  0
VERTEX
  5
B6
330
B2
100
AcDbEntity
  8
Layer 2
 62
    18
420
    65793
370
    35
100
AcDbVertex
100
AcDb2dVertex
 10
189.2645887113644
 20
-80.39595402721004
 30
0.0
  0
VERTEX
  5
B7
330
B2
100
AcDbEntity
  8
Layer 2
 62
    18
420
    65793
370
    35
100
AcDbVertex
100
AcDb2dVertex
 10
187.7101616284197
 20
-81.95072561970329
 30
0.0
  0
VERTEX
  5
B8
330
B2
100
AcDbEntity
  8
Layer 2
 62
    18
420
    65793
370
    35
100
AcDbVertex
100
AcDb2dVertex
 10
187.7101616284197
 20
-85.05957978559275
 30
0.0
  0
VERTEX
  5
B9
330
B2
100
AcDbEntity
  8
Layer 2
 62
    18
420
    65793
370
    35
100
AcDbVertex
100
AcDb2dVertex
 10
184.6006184434332
 20
-85.05957978559275
 30
0.0
  0
VERTEX
  5
BA
330
B2
100
AcDbEntity
  8
Layer 2
 62
    18
420
    65793
370
    35
100
AcDbVertex
100
AcDb2dVertex
 10
184.6006184434332
 20
-81.95072561970329
 30
0.0
  0
VERTEX
  5
BB
330
B2
100
AcDbEntity
  8
Layer 2
 62
    18
420
    65793
370
    35
100
AcDbVertex
100
AcDb2dVertex
 10
183.046535870037
 20
-80.39595402721004
 30
0.0
  0
VERTEX
  5
BC
330
B2
100
AcDbEntity
  8
Layer 2
 62
    18
420
    65793
370
    35
100
AcDbVertex
100
AcDb2dVertex
 10
181.4917642775437
 20
-81.95072561970329
 30
0.0
  0
VERTEX
  5
BD
330
B2
100
AcDbEntity
  8
Layer 2
 62
    18
420
    65793
370
    35
100
AcDbVertex
100
AcDb2dVertex
 10
181.4917642775437
 20
-85.05957978559275
 30
0.0
  0
VERTEX
  5
BE
330
B2
100
AcDbEntity
  8
Layer 2
 62
    18
420
    65793
370
    35
100
AcDbVertex
100
AcDb2dVertex
 10
178.3829101116543
 20
-85.05957978559275
 30
0.0
  0
VERTEX
  5
BF
330
B2
100
AcDbEntity
  8
Layer 2
 62
    18
420
    65793
370
    35
100
AcDbVertex
100
AcDb2dVertex
 10
178.3829101116543
 20
-81.95072561970329
 30
0.0
  0
VERTEX
  5
C0
330
B2
100
AcDbEntity
  8
Layer 2
 62
    18
420
    65793
370
    35
100
AcDbVertex
100
AcDb2dVertex
 10
176.8277940096125
 20
-80.39595402721004
 30
0.0
  0
VERTEX
  5
C1
330
B2
100
AcDbEntity
  8
Layer 2
 62
    18
420
    65793
370
    35
100
AcDbVertex
100
AcDb2dVertex
 10
175.2737114362163
 20
-81.95072561970329
 30
0.0
  0
VERTEX
  5
C2
330
B2
100
AcDbEntity
  8
Layer 2
 62
    18
420
    65793
370
    35
100
AcDbVertex
100
AcDb2dVertex
 10
175.2737114362163
 20
-85.05957978559275
 30
0.0
  0
VERTEX
  5
C3
330
B2
100
AcDbEntity
  8
Layer 2
 62
    18
420
    65793
370
    35
100
AcDbVertex
100
AcDb2dVertex
 10
169.0556585948889
 20
-85.05957978559275
 30
0.0
  0
VERTEX
  5
C4
330
B2
100
AcDbEntity
  8
Layer 2
 62
    18
420
    65793
370
    35
100
AcDbVertex
100
AcDb2dVertex
 10
169.0556585948889
 20
-88.16895071580498
 30
0.0
  0
VERTEX
  5
C5
330
B2
100
AcDbEntity
  8
Layer 2
 62
    18
420
    65793
370
    35
100
AcDbVertex
100
AcDb2dVertex
 10
175.2737114362163
 20
-88.16895071580498
 30
0.0
  0
VERTEX
  5
C6
330
B2
100
AcDbEntity
  8
Layer 2
 62
    18
420
    65793
370
    35
100
AcDbVertex
100
AcDb2dVertex
 10
175.2737114362163
 20
-91.27814939124296
 30
0.0
  0
VERTEX
  5
C7
330
B2
100
AcDbEntity
  8
Layer 2
 62
    18
420
    65793
370
    35
100
AcDbVertex
100
AcDb2dVertex
 10
176.8277940096125
 20
-92.83223196463916
 30
0.0
  0
VERTEX
  5
C8
330
B2
100
AcDbEntity
  8
Layer 2
 62
    18
420
    65793
370
    35
100
AcDbVertex
100
AcDb2dVertex
 10
178.3829101116543
 20
-91.27814939124296
 30
0.0
  0
VERTEX
  5
C9
330
B2
100
AcDbEntity
  8
Layer 2
 62
    18
420
    65793
370
    35
100
AcDbVertex
100
AcDb2dVertex
 10
178.3829101116543
 20
-88.16895071580498
 30
0.0
  0
VERTEX
  5
CA
330
B2
100
AcDbEntity
  8
Layer 2
 62
    18
420
    65793
370
    35
100
AcDbVertex
100
AcDb2dVertex
 10
181.4917642775437
 20
-88.16895071580498
 30
0.0
  0
VERTEX
  5
CB
330
B2
100
AcDbEntity
  8
Layer 2
 62
    18
420
    65793
370
    35
100
AcDbVertex
100
AcDb2dVertex
 10
181.4917642775437
 20
-91.27814939124296
 30
0.0
  0
VERTEX
  5
CC
330
B2
100
AcDbEntity
  8
Layer 2
 62
    18
420
    65793
370
    35
100
AcDbVertex
100
AcDb2dVertex
 10
183.046535870037
 20
-92.83223196463916
 30
0.0
  0
VERTEX
  5
CD
330
B2
100
AcDbEntity
  8
Layer 2
 62
    18
420
    65793
370
    35
100
AcDbVertex
100
AcDb2dVertex
 10
184.6006184434332
 20
-91.27814939124296
 30
0.0
  0
VERTEX
  5
CE
330
B2
100
AcDbEntity
  8
Layer 2
 62
    18
420
    65793
370
    35
100
AcDbVertex
100
AcDb2dVertex
 10
184.6006184434332
 20
-88.16895071580498
 30
0.0
  0
VERTEX
  5
CF
330
B2
100
AcDbEntity
  8
Layer 2
 62
    18
420
    65793
370
    35
100
AcDbVertex
100
AcDb2dVertex
 10
187.7101616284197
 20
-88.16895071580498
 30
0.0
  0
VERTEX
  5
D0
330
B2
100
AcDbEntity
  8
Layer 2
 62
    18
420
    65793
370
    35
100
AcDbVertex
100
AcDb2dVertex
 10
187.7101616284197
 20
-91.27814939124296
 30
0.0
  0
VERTEX
  5
D1
330
B2
100
AcDbEntity
  8
Layer 2
 62
    18
420
    65793
370
    35
100
AcDbVertex
100
AcDb2dVertex
 10
189.2645887113644
 20
-92.83223196463916
 30
0.0
  0
VERTEX
  5
D2
330
B2
100
AcDbEntity
  8
Layer 2
 62
    18
420
    65793
370
    35
100
AcDbVertex
100
AcDb2dVertex
 10
190.8190157943091
 20
-91.27814939124296
 30
0.0
  0
VERTEX
  5
D3
330
B2
100
AcDbEntity
  8
Layer 2
 62
    18
420
    65793
370
    35
100
AcDbVertex
100
AcDb2dVertex
 10
190.8190157943091
 20
-88.16895071580498
 30
0.0
  0
VERTEX
  5
D4
330
B2
100
AcDbEntity
  8
Layer 2
 62
    18
420
    65793
370
    35
100
AcDbVertex
100
AcDb2dVertex
 10
212.5823729937294
 20
-88.16895071580498
 30
0.0
  0
VERTEX
  5
D5
330
B2
100
AcDbEntity
  8
Layer 2
 62
    18
420
    65793
370
    35
100
AcDbVertex
100
AcDb2dVertex
 10
212.5823729937294
 20
-85.05957978559275
 30
0.0
  0
SEQEND
  5
D6
330
B2
100
AcDbEntity
  8
Layer 2
370
    35
  0
ENDBLK
  5
AD
330
AA
100
AcDbEntity
  8
0
100
AcDbBlockEnd
  0
BLOCK
  5
D9
330
D7
100
AcDbEntity
  8
0
100
AcDbBlockBegin
  2
block 5
 70
     0
 71
     0
 10
0.0
 20
0.0
 30
0.0
  3
block 5
  1

  0
SPLINE
  5
DB
330
D7
100
AcDbEntity
  8
Layer 2
 62
    18
420
    65793
370
    35
100
AcDbSpline
210
0.0
220
0.0
230
1.0
 70
    11
 71
     3
 72
    41
 73
    37
 74
     0
 42
0.0000000001
 43
0.0000000001
 40
0.0
 40
0.0
 40
0.0
 40
0.0
 40
1.0
 40
1.0
 40
1.0
 40
2.0
 40
2.0
 40
2.0
 40
3.0
 40
3.0
 40
3.0
 40
4.0
 40
4.0
 40
4.0
 40
5.0
 40
5.0
 40
5.0
 40
6.0
 40
6.0
 40
6.0
 40
7.0
 40
7.0
 40
7.0
 40
8.0
 40
8.0
 40
8.0
 40
9.0
 40
9.0
 40
9.0
 40
10.0
 40
10.0
 40
10.0
 40
11.0
 40
11.0
 40
11.0
 40
12.0
 40
12.0
 40
12.0
 40
12.0
 10
195.180851188184
 20
-128.2905327370246
 30
0.0
 10
195.180851188184
 20
-128.2905327370246
 30
0.0
 10
198.8219726065445
 20
-128.2905327370246
 30
0.0
 10
198.8219726065445
 20
-128.2905327370246
 30
0.0
 10
198.8219726065445
 20
-132.0408636822676
 30
0.0
 10
202.4634385344536
 20
-142.0405978377538
 30
0.0
 10
211.5674478637748
 20
-142.0405978377538
 30
0.0
 10
211.5674478637748
 20
-142.0405978377538
 30
0.0
 10
213.3885253372779
 20
-143.2908229893509
 30
0.0
 10
215.2089137916839
 20
-143.2908229893509
 30
0.0
 10
217.0296467556384
 20
-143.2908229893509
 30
0.0
 10
220.6711126835475
 20
-143.2908229893509
 30
0.0
 10
222.4918456475021
 20
-143.2908229893509
 30
0.0
 10
224.3122341019081
 20
-143.2908229893509
 30
0.0
 10
226.1333115754111
 20
-142.0405978377538
 30
0.0
 10
226.1333115754111
 20
-142.0405978377538
 30
0.0
 10
235.2366318856353
 20
-142.0405978377538
 30
0.0
 10
238.8784423230929
 20
-132.0408636822676
 30
0.0
 10
238.8784423230929
 20
-128.2905327370246
 30
0.0
 10
238.8784423230929
 20
-128.2905327370246
 30
0.0
 10
242.519908251002
 20
-128.2905327370246
 30
0.0
 10
242.519908251002
 20
-128.2905327370246
 30
0.0
 10
242.519908251002
 20
-134.5406249663648
 30
0.0
 10
237.0577093591384
 20
-144.5407036313996
 30
0.0
 10
227.9540445393657
 20
-144.5407036313996
 30
0.0
 10
227.9540445393657
 20
-144.5407036313996
 30
0.0
 10
227.9540445393657
 20
-145.7905842734482
 30
0.0
 10
227.9540445393657
 20
-145.7905842734482
 30
0.0
 10
227.9540445393657
 20
-145.7905842734482
 30
0.0
 10
209.7467148998203
 20
-145.7905842734482
 30
0.0
 10
209.7467148998203
 20
-145.7905842734482
 30
0.0
 10
209.7467148998203
 20
-145.7905842734482
 30
0.0
 10
209.7467148998203
 20
-144.5407036313996
 30
0.0
 10
209.7467148998203
 20
-144.5407036313996
 30
0.0
 10
200.6430500800476
 20
-144.5407036313996
 30
0.0
 10
195.180851188184
 20
-134.5409694759134
 30
0.0
 10
195.180851188184
 20
-128.2905327370246
 30
0.0
  0
POLYLINE
  5
DC
330
D7
100
AcDbEntity
  8
Layer 2
 62
    18
420
    65793
370
    35
100
AcDb2dPolyline
 66
     1
 10
0.0
 20
0.0
 30
0.0
  0
VERTEX
  5
DD
330
DC
100
AcDbEntity
  8
Layer 2
 62
    18
420
    65793
370
    35
100
AcDbVertex
100
AcDb2dVertex
 10
234.2306640039423
 20
-101.2782280562777
 30
0.0
  0
VERTEX
  5
DE
330
DC
100
AcDbEntity
  8
Layer 2
 62
    18
420
    65793
370
    35
100
AcDbVertex
100
AcDb2dVertex
 10
236.0135009175591
 20
-102.5656602391155
 30
0.0
  0
VERTEX
  5
DF
330
DC
100
AcDbEntity
  8
Layer 2
 62
    18
420
    65793
370
    35
100
AcDbVertex
100
AcDb2dVertex
 10
228.8325438881044
 20
-114.0054443074362
 30
0.0
  0
VERTEX
  5
E0
330
DC
100
AcDbEntity
  8
Layer 2
 62
    18
420
    65793
370
    35
100
AcDbVertex
100
AcDb2dVertex
 10
240.0742349660231
 20
-107.171408393346
 30
0.0
  0
VERTEX
  5
E1
330
DC
100
AcDbEntity
  8
Layer 2
 62
    18
420
    65793
370
    35
100
AcDbVertex
100
AcDb2dVertex
 10
241.4112765238486
 20
-109.2019476723523
 30
0.0
  0
VERTEX
  5
E2
330
DC
100
AcDbEntity
  8
Layer 2
 62
    18
420
    65793
370
    35
100
AcDbVertex
100
AcDb2dVertex
 10
225.4649630512727
 20
-118.9081596924952
 30
0.0
  0
VERTEX
  5
E3
330
DC
100
AcDbEntity
  8
Layer 2
 62
    18
420
    65793
370
    35
100
AcDbVertex
100
AcDb2dVertex
 10
214.56984857917
 20
-136.1422498574575
 30
0.0
  0
VERTEX
  5
E4
330
DC
100
AcDbEntity
  8
Layer 2
 62
    18
420
    65793
370
    35
100
AcDbVertex
100
AcDb2dVertex
 10
212.5396538097123
 20
-134.8548176746196
 30
0.0
  0
VERTEX
  5
E5
330
DC
100
AcDbEntity
  8
Layer 2
 62
    18
420
    65793
370
    35
100
AcDbVertex
100
AcDb2dVertex
 10
220.8099500316031
 20
-121.8302896830841
 30
0.0
  0
VERTEX
  5
E6
330
DC
100
AcDbEntity
  8
Layer 2
 62
    18
420
    65793
370
    35
100
AcDbVertex
100
AcDb2dVertex
 10
207.2900173092886
 20
-130.1005859049748
 30
0.0
  0
VERTEX
  5
E7
330
DC
100
AcDbEntity
  8
Layer 2
 62
    18
420
    65793
370
    35
100
AcDbVertex
100
AcDb2dVertex
 10
206.0521945014384
 20
-128.0700466259686
 30
0.0
  0
VERTEX
  5
E8
330
DC
100
AcDbEntity
  8
Layer 2
 62
    18
420
    65793
370
    35
100
AcDbVertex
100
AcDb2dVertex
 10
223.9298285030453
 20
-117.174932153866
 30
0.0
  0
VERTEX
  5
E9
330
DC
100
AcDbEntity
  8
Layer 2
 62
    18
420
    65793
370
    35
100
AcDbVertex
100
AcDb2dVertex
 10
234.2306640039423
 20
-101.2782280562777
 30
0.0
  0
SEQEND
  5
EA
330
DC
100
AcDbEntity
  8
Layer 2
370
    35
  0
ENDBLK
  5
DA
330
D7
100
AcDbEntity
  8
0
100
AcDbBlockEnd
  0
ENDSEC
  0
SECTION
  2
ENTITIES
  0
SPLINE
  5
3C
330
1F
100
AcDbEntity
  8
Layer 4
 62
    18
420
    65793
370
    35
100
AcDbSpline
210
0.0
220
0.0
230
1.0
 70
    11
 71
     3
 72
    17
 73
    13
 74
     0
 42
0.0000000001
 43
0.0000000001
 40
0.0
 40
0.0
 40
0.0
 40
0.0
 40
1.0
 40
1.0
 40
1.0
 40
2.0
 40
2.0
 40
2.0
 40
3.0
 40
3.0
 40
3.0
 40
4.0
 40
4.0
 40
4.0
 40
4.0
 10
242.0003878518263
 20
-19.99998507529514
 30
0.0
 10
242.0003878518263
 20
-21.10448268786624
 30
0.0
 10
241.1050075352099
 20
-22.00003525925694
 30
0.0
 10
240.0005099226388
 20
-22.00003525925694
 30
0.0
 10
238.8960123100677
 20
-22.00003525925694
 30
0.0
 10
238.0006319934512
 20
-21.10448268786624
 30
0.0
 10
238.0006319934512
 20
-19.99998507529514
 30
0.0
 10
238.0006319934512
 20
-18.89548746272405
 30
0.0
 10
238.8960123100677
 20
-17.99993489133335
 30
0.0
 10
240.0005099226388
 20
-17.99993489133335
 30
0.0
 10
241.1050075352099
 20
-17.99993489133335
 30
0.0
 10
242.0003878518263
 20
-18.89548746272405
 30
0.0
 10
242.0003878518263
 20
-19.99998507529514
 30
0.0
  0
SPLINE
  5
3D
330
1F
100
AcDbEntity
  8
Layer 4
 62
    18
420
    65793
370
    35
100
AcDbSpline
210
0.0
220
0.0
230
1.0
 70
    11
 71
     3
 72
    17
 73
    13
 74
     0
 42
0.0000000001
 43
0.0000000001
 40
0.0
 40
0.0
 40
0.0
 40
0.0
 40
1.0
 40
1.0
 40
1.0
 40
2.0
 40
2.0
 40
2.0
 40
3.0
 40
3.0
 40
3.0
 40
4.0
 40
4.0
 40
4.0
 40
4.0
 10
242.0003878518263
 20
-150.000146446875
 30
0.0
 10
242.0003878518263
 20
-151.1046440594461
 30
0.0
 10
241.1050075352099
 20
-152.0000243760625
 30
0.0
 10
240.0005099226388
 20
-152.0000243760625
 30
0.0
 10
238.8960123100677
 20
-152.0000243760625
 30
0.0
 10
238.0006319934512
 20
-151.1046440594461
 30
0.0
 10
238.0006319934512
 20
-150.000146446875
 30
0.0
 10
238.0006319934512
 20
-148.8956488343039
 30
0.0
 10
238.8960123100677
 20
-148.0002685176874
 30
0.0
 10
240.0005099226388
 20
-148.0002685176874
 30
0.0
 10
241.1050075352099
 20
-148.0002685176874
 30
0.0
 10
242.0003878518263
 20
-148.8956488343039
 30
0.0
 10
242.0003878518263
 20
-150.000146446875
 30
0.0
  0
SPLINE
  5
3E
330
1F
100
AcDbEntity
  8
Layer 4
 62
    18
420
    65793
370
    35
100
AcDbSpline
210
0.0
220
0.0
230
1.0
 70
    11
 71
     3
 72
    17
 73
    13
 74
     0
 42
0.0000000001
 43
0.0000000001
 40
0.0
 40
0.0
 40
0.0
 40
0.0
 40
1.0
 40
1.0
 40
1.0
 40
2.0
 40
2.0
 40
2.0
 40
3.0
 40
3.0
 40
3.0
 40
4.0
 40
4.0
 40
4.0
 40
4.0
 10
22.00003525925694
 20
-150.000146446875
 30
0.0
 10
22.00003525925694
 20
-151.1046440594461
 30
0.0
 10
21.10448268786624
 20
-152.0000243760625
 30
0.0
 10
19.99998507529514
 20
-152.0000243760625
 30
0.0
 10
18.89548746272405
 20
-152.0000243760625
 30
0.0
 10
17.99993489133335
 20
-151.1046440594461
 30
0.0
 10
17.99993489133335
 20
-150.000146446875
 30
0.0
 10
17.99993489133335
 20
-148.8956488343039
 30
0.0
 10
18.89548746272405
 20
-148.0002685176874
 30
0.0
 10
19.99998507529514
 20
-148.0002685176874
 30
0.0
 10
21.10448268786624
 20
-148.0002685176874
 30
0.0
 10
22.00003525925694
 20
-148.8956488343039
 30
0.0
 10
22.00003525925694
 20
-150.000146446875
 30
0.0
  0
SPLINE
  5
3F
330
1F
100
AcDbEntity
  8
Layer 4
 62
    18
420
    65793
370
    35
100
AcDbSpline
210
0.0
220
0.0
230
1.0
 70
    11
 71
     3
 72
    17
 73
    13
 74
     0
 42
0.0000000001
 43
0.0000000001
 40
0.0
 40
0.0
 40
0.0
 40
0.0
 40
1.0
 40
1.0
 40
1.0
 40
2.0
 40
2.0
 40
2.0
 40
3.0
 40
3.0
 40
3.0
 40
4.0
 40
4.0
 40
4.0
 40
4.0
 10
21.50015190434718
 20
-20.50004068497916
 30
0.0
 10
21.50015190434718
 20
-21.60453829755026
 30
0.0
 10
20.60459933295649
 20
-22.50009086894095
 30
0.0
 10
19.50010172038539
 20
-22.50009086894095
 30
0.0
 10
18.39560410781429
 20
-22.50009086894095
 30
0.0
 10
17.5000515364236
 20
-21.60453829755026
 30
0.0
 10
17.5000515364236
 20
-20.50004068497916
 30
0.0
 10
17.5000515364236
 20
-19.39554307240806
 30
0.0
 10
18.39560410781429
 20
-18.49999050101736
 30
0.0
 10
19.50010172038539
 20
-18.49999050101736
 30
0.0
 10
20.60459933295649
 20
-18.49999050101736
 30
0.0
 10
21.50015190434718
 20
-19.39554307240806
 30
0.0
 10
21.50015190434718
 20
-20.50004068497916
 30
0.0
  0
SPLINE
  5
40
330
1F
100
AcDbEntity
  8
Layer 4
 62
    18
420
    65793
370
    35
100
AcDbSpline
210
0.0
220
0.0
230
1.0
 70
    11
 71
     3
 72
    17
 73
    13
 74
     0
 42
0.0000000001
 43
0.0000000001
 40
0.0
 40
0.0
 40
0.0
 40
0.0
 40
1.0
 40
1.0
 40
1.0
 40
2.0
 40
2.0
 40
2.0
 40
3.0
 40
3.0
 40
3.0
 40
4.0
 40
4.0
 40
4.0
 40
4.0
 10
132.0002115555416
 20
-19.99998507529514
 30
0.0
 10
132.0002115555416
 20
-21.10448268786624
 30
0.0
 10
131.1048312389252
 20
-22.00003525925694
 30
0.0
 10
130.0001613715798
 20
-22.00003525925694
 30
0.0
 10
128.8956637590087
 20
-22.00003525925694
 30
0.0
 10
128.000111187618
 20
-21.10448268786624
 30
0.0
 10
128.000111187618
 20
-19.99998507529514
 30
0.0
 10
128.000111187618
 20
-18.89548746272405
 30
0.0
 10
128.8956637590087
 20
-17.99993489133335
 30
0.0
 10
130.0001613715798
 20
-17.99993489133335
 30
0.0
 10
131.1048312389252
 20
-17.99993489133335
 30
0.0
 10
132.0002115555416
 20
-18.89548746272405
 30
0.0
 10
132.0002115555416
 20
-19.99998507529514
 30
0.0
  0
SPLINE
  5
41
330
1F
100
AcDbEntity
  8
Layer 4
 62
    18
420
    65793
370
    35
100
AcDbSpline
210
0.0
220
0.0
230
1.0
 70
    11
 71
     3
 72
    17
 73
    13
 74
     0
 42
0.0000000001
 43
0.0000000001
 40
0.0
 40
0.0
 40
0.0
 40
0.0
 40
1.0
 40
1.0
 40
1.0
 40
2.0
 40
2.0
 40
2.0
 40
3.0
 40
3.0
 40
3.0
 40
4.0
 40
4.0
 40
4.0
 40
4.0
 10
132.0002115555416
 20
-150.000146446875
 30
0.0
 10
132.0002115555416
 20
-151.1046440594461
 30
0.0
 10
131.1048312389252
 20
-152.0000243760625
 30
0.0
 10
130.0001613715798
 20
-152.0000243760625
 30
0.0
 10
128.8956637590087
 20
-152.0000243760625
 30
0.0
 10
128.000111187618
 20
-151.1046440594461
 30
0.0
 10
128.000111187618
 20
-150.000146446875
 30
0.0
 10
128.000111187618
 20
-148.8956488343039
 30
0.0
 10
128.8956637590087
 20
-148.0002685176874
 30
0.0
 10
130.0001613715798
 20
-148.0002685176874
 30
0.0
 10
131.1048312389252
 20
-148.0002685176874
 30
0.0
 10
132.0002115555416
 20
-148.8956488343039
 30
0.0
 10
132.0002115555416
 20
-150.000146446875
 30
0.0
  0
SPLINE
  5
42
330
1F
100
AcDbEntity
  8
Layer 4
 62
   250
420
  2301728
370
    35
100
AcDbSpline
210
0.0
220
0.0
230
1.0
 70
    11
 71
     3
 72
    17
 73
    13
 74
     0
 42
0.0000000001
 43
0.0000000001
 40
0.0
 40
0.0
 40
0.0
 40
0.0
 40
1.0
 40
1.0
 40
1.0
 40
2.0
 40
2.0
 40
2.0
 40
3.0
 40
3.0
 40
3.0
 40
4.0
 40
4.0
 40
4.0
 40
4.0
 10
21.50015190434718
 20
-114.2503905964374
 30
0.0
 10
21.50015190434718
 20
-115.3548882090085
 30
0.0
 10
20.60459933295649
 20
-116.2502685256249
 30
0.0
 10
19.50010172038539
 20
-116.2502685256249
 30
0.0
 10
18.39560410781429
 20
-116.2502685256249
 30
0.0
 10
17.5000515364236
 20
-115.3548882090085
 30
0.0
 10
17.5000515364236
 20
-114.2503905964374
 30
0.0
 10
17.5000515364236
 20
-113.1458929838663
 30
0.0
 10
18.39560410781429
 20
-112.2505126672499
 30
0.0
 10
19.50010172038539
 20
-112.2505126672499
 30
0.0
 10
20.60459933295649
 20
-112.2505126672499
 30
0.0
 10
21.50015190434718
 20
-113.1458929838663
 30
0.0
 10
21.50015190434718
 20
-114.2503905964374
 30
0.0
  0
SPLINE
  5
43
330
1F
100
AcDbEntity
  8
Layer 4
 62
   250
420
  2301728
370
    35
100
AcDbSpline
210
0.0
220
0.0
230
1.0
 70
    11
 71
     3
 72
    17
 73
    13
 74
     0
 42
0.0000000001
 43
0.0000000001
 40
0.0
 40
0.0
 40
0.0
 40
0.0
 40
1.0
 40
1.0
 40
1.0
 40
2.0
 40
2.0
 40
2.0
 40
3.0
 40
3.0
 40
3.0
 40
4.0
 40
4.0
 40
4.0
 40
4.0
 10
21.50015190434718
 20
-84.24998234655904
 30
0.0
 10
21.50015190434718
 20
-85.35447995913013
 30
0.0
 10
20.60459933295649
 20
-86.25003253052083
 30
0.0
 10
19.50010172038539
 20
-86.25003253052083
 30
0.0
 10
18.39560410781429
 20
-86.25003253052083
 30
0.0
 10
17.5000515364236
 20
-85.35447995913013
 30
0.0
 10
17.5000515364236
 20
-84.24998234655904
 30
0.0
 10
17.5000515364236
 20
-83.14548473398794
 30
0.0
 10
18.39560410781429
 20
-82.24993216259725
 30
0.0
 10
19.50010172038539
 20
-82.24993216259725
 30
0.0
 10
20.60459933295649
 20
-82.24993216259725
 30
0.0
 10
21.50015190434718
 20
-83.14548473398794
 30
0.0
 10
21.50015190434718
 20
-84.24998234655904
 30
0.0
  0
SPLINE
  5
44
330
1F
100
AcDbEntity
  8
Layer 4
 62
   250
420
  2301728
370
    35
100
AcDbSpline
210
0.0
220
0.0
230
1.0
 70
    11
 71
     3
 72
    17
 73
    13
 74
     0
 42
0.0000000001
 43
0.0000000001
 40
0.0
 40
0.0
 40
0.0
 40
0.0
 40
1.0
 40
1.0
 40
1.0
 40
2.0
 40
2.0
 40
2.0
 40
3.0
 40
3.0
 40
3.0
 40
4.0
 40
4.0
 40
4.0
 40
4.0
 10
21.25003797211805
 20
-54.50020479323259
 30
0.0
 10
21.25003797211805
 20
-55.60470240580369
 30
0.0
 10
20.35448540072735
 20
-56.50025497719438
 30
0.0
 10
19.24998778815625
 20
-56.50025497719438
 30
0.0
 10
18.14549017558516
 20
-56.50025497719438
 30
0.0
 10
17.24993760419446
 20
-55.60470240580369
 30
0.0
 10
17.24993760419446
 20
-54.50020479323259
 30
0.0
 10
17.24993760419446
 20
-53.39570718066149
 30
0.0
 10
18.14549017558516
 20
-52.50015460927079
 30
0.0
 10
19.24998778815625
 20
-52.50015460927079
 30
0.0
 10
20.35448540072735
 20
-52.50015460927079
 30
0.0
 10
21.25003797211805
 20
-53.39570718066149
 30
0.0
 10
21.25003797211805
 20
-54.50020479323259
 30
0.0
  0
SPLINE
  5
46
330
1F
100
AcDbEntity
  8
Layer 3
 62
    18
420
    65793
370
    35
100
AcDbSpline
210
0.0
220
0.0
230
1.0
 70
    11
 71
     3
 72
    23
 73
    19
 74
     0
 42
0.0000000001
 43
0.0000000001
 40
0.0
 40
0.0
 40
0.0
 40
0.0
 40
1.0
 40
1.0
 40
1.0
 40
2.0
 40
2.0
 40
2.0
 40
3.0
 40
3.0
 40
3.0
 40
4.0
 40
4.0
 40
4.0
 40
5.0
 40
5.0
 40
5.0
 40
6.0
 40
6.0
 40
6.0
 40
6.0
 10
231.3736463180247
 20
-70.42705347631686
 30
0.0
 10
231.3736463180247
 20
-70.42705347631686
 30
0.0
 10
203.6027316114257
 20
-70.42705347631686
 30
0.0
 10
203.6027316114257
 20
-70.42705347631686
 30
0.0
 10
203.6027316114257
 20
-76.4557983207298
 30
0.0
 10
207.4571044403232
 20
-81.57676050477943
 30
0.0
 10
212.8311088877645
 20
-83.49361163277243
 30
0.0
 10
212.8311088877645
 20
-83.49361163277243
 30
0.0
 10
212.8311088877645
 20
-85.45077037794287
 30
0.0
 10
212.8311088877645
 20
-85.45077037794287
 30
0.0
 10
212.8311088877645
 20
-85.45077037794287
 30
0.0
 10
222.1449245321374
 20
-85.45077037794287
 30
0.0
 10
222.1449245321374
 20
-85.45077037794287
 30
0.0
 10
222.1449245321374
 20
-85.45077037794287
 30
0.0
 10
222.1449245321374
 20
-83.49361163277243
 30
0.0
 10
222.1449245321374
 20
-83.49361163277243
 30
0.0
 10
227.5203070177727
 20
-81.57676050477943
 30
0.0
 10
231.3736463180247
 20
-76.4557983207298
 30
0.0
 10
231.3736463180247
 20
-70.42705347631686
 30
0.0
  0
SPLINE
  5
47
330
1F
100
AcDbEntity
  8
Layer 3
 62
    18
420
    65793
370
    35
100
AcDbSpline
210
0.0
220
0.0
230
1.0
 70
    11
 71
     3
 72
    23
 73
    19
 74
     0
 42
0.0000000001
 43
0.0000000001
 40
0.0
 40
0.0
 40
0.0
 40
0.0
 40
1.0
 40
1.0
 40
1.0
 40
2.0
 40
2.0
 40
2.0
 40
3.0
 40
3.0
 40
3.0
 40
4.0
 40
4.0
 40
4.0
 40
5.0
 40
5.0
 40
5.0
 40
6.0
 40
6.0
 40
6.0
 40
6.0
 10
236.2505234869443
 20
-56.7720730109806
 30
0.0
 10
236.2505234869443
 20
-56.7720730109806
 30
0.0
 10
235.3802923673702
 20
-55.63519150084815
 30
0.0
 10
235.3802923673702
 20
-55.63519150084815
 30
0.0
 10
235.3802923673702
 20
-55.63519150084815
 30
0.0
 10
222.8701171317825
 20
-65.17913952363577
 30
0.0
 10
222.8701171317825
 20
-65.17913952363577
 30
0.0
 10
222.8701171317825
 20
-65.17913952363577
 30
0.0
 10
213.7034070646297
 20
-65.17913952363577
 30
0.0
 10
213.7034070646297
 20
-65.17913952363577
 30
0.0
 10
213.7034070646297
 20
-65.17913952363577
 30
0.0
 10
216.2689696724953
 20
-67.94296737667746
 30
0.0
 10
219.4350124234399
 20
-67.94296737667746
 30
0.0
 10
222.0694769410104
 20
-67.94296737667746
 30
0.0
 10
224.2705484465365
 20
-66.04299721656217
 30
0.0
 10
224.9406195184176
 20
-65.4027262206285
 30
0.0
 10
224.9406195184176
 20
-65.4027262206285
 30
0.0
 10
236.2505234869443
 20
-56.7720730109806
 30
0.0
 10
236.2505234869443
 20
-56.7720730109806
 30
0.0
  0
SPLINE
  5
48
330
1F
100
AcDbEntity
  8
Layer 3
 62
    18
420
    65793
370
    35
100
AcDbSpline
210
0.0
220
0.0
230
1.0
 70
    11
 71
     3
 72
    20
 73
    16
 74
     0
 42
0.0000000001
 43
0.0000000001
 40
0.0
 40
0.0
 40
0.0
 40
0.0
 40
1.0
 40
1.0
 40
1.0
 40
2.0
 40
2.0
 40
2.0
 40
3.0
 40
3.0
 40
3.0
 40
4.0
 40
4.0
 40
4.0
 40
5.0
 40
5.0
 40
5.0
 40
5.0
 10
187.3529052265993
 20
-102.6927842625213
 30
0.0
 10
187.3529052265993
 20
-109.3659342174502
 30
0.0
 10
192.7813421827074
 20
-114.7971272499466
 30
0.0
 10
199.4534586089908
 20
-114.7971272499466
 30
0.0
 10
206.1279866021139
 20
-114.7971272499466
 30
0.0
 10
211.556423558222
 20
-109.3659342174502
 30
0.0
 10
211.556423558222
 20
-102.6927842625213
 30
0.0
 10
211.556423558222
 20
-102.6927842625213
 30
0.0
 10
211.556423558222
 20
-102.1064290109317
 30
0.0
 10
211.556423558222
 20
-102.1064290109317
 30
0.0
 10
211.556423558222
 20
-102.1064290109317
 30
0.0
 10
187.3529052265993
 20
-102.1064290109317
 30
0.0
 10
187.3529052265993
 20
-102.1064290109317
 30
0.0
 10
187.3529052265993
 20
-102.1064290109317
 30
0.0
 10
187.3529052265993
 20
-102.6927842625213
 30
0.0
 10
187.3529052265993
 20
-102.6927842625213
 30
0.0
  0
SPLINE
  5
49
330
1F
100
AcDbEntity
  8
Layer 3
 62
    18
420
    65793
370
    35
100
AcDbSpline
210
0.0
220
0.0
230
1.0
 70
    11
 71
     3
 72
    14
 73
    10
 74
     0
 42
0.0000000001
 43
0.0000000001
 40
0.0
 40
0.0
 40
0.0
 40
0.0
 40
1.0
 40
1.0
 40
1.0
 40
2.0
 40
2.0
 40
2.0
 40
3.0
 40
3.0
 40
3.0
 40
3.0
 10
199.4534586089908
 20
-113.6192491035396
 30
0.0
 10
194.657196674426
 20
-113.6192491035396
 30
0.0
 10
190.5768255816961
 20
-110.5048827848738
 30
0.0
 10
189.1123154909164
 20
-106.198168918763
 30
0.0
 10
189.1123154909164
 20
-106.198168918763
 30
0.0
 10
209.7939127079682
 20
-106.198168918763
 30
0.0
 10
209.7939127079682
 20
-106.198168918763
 30
0.0
 10
208.3325032031252
 20
-110.5048827848738
 30
0.0
 10
204.2541991676865
 20
-113.6192491035396
 30
0.0
 10
199.4534586089908
 20
-113.6192491035396
 30
0.0
  0
SPLINE
  5
4A
330
1F
100
AcDbEntity
  8
Layer 3
 62
    18
420
    65793
370
    35
100
AcDbSpline
210
0.0
220
0.0
230
1.0
 70
    11
 71
     3
 72
    17
 73
    13
 74
     0
 42
0.0000000001
 43
0.0000000001
 40
0.0
 40
0.0
 40
0.0
 40
0.0
 40
1.0
 40
1.0
 40
1.0
 40
2.0
 40
2.0
 40
2.0
 40
3.0
 40
3.0
 40
3.0
 40
4.0
 40
4.0
 40
4.0
 40
4.0
 10
210.3647650298741
 20
-103.2808620618534
 30
0.0
 10
210.3258354508908
 20
-103.9688476302578
 30
0.0
 10
210.2224825863333
 20
-104.64098575943
 30
0.0
 10
210.0643527035603
 20
-105.2893527297541
 30
0.0
 10
210.0643527035603
 20
-105.2893527297541
 30
0.0
 10
188.8463541194551
 20
-105.2893527297541
 30
0.0
 10
188.8463541194551
 20
-105.2893527297541
 30
0.0
 10
188.6882242366821
 20
-104.64098575943
 30
0.0
 10
188.5803927479938
 20
-103.9688476302578
 30
0.0
 10
188.5445637549472
 20
-103.2808620618534
 30
0.0
 10
188.5445637549472
 20
-103.2808620618534
 30
0.0
 10
210.3647650298741
 20
-103.2808620618534
 30
0.0
 10
210.3647650298741
 20
-103.2808620618534
 30
0.0
  0
SPLINE
  5
4B
330
1F
100
AcDbEntity
  8
Layer 3
 62
    18
420
    65793
370
    35
100
AcDbSpline
210
0.0
220
0.0
230
1.0
 70
    11
 71
     3
 72
    23
 73
    19
 74
     0
 42
0.0000000001
 43
0.0000000001
 40
0.0
 40
0.0
 40
0.0
 40
0.0
 40
1.0
 40
1.0
 40
1.0
 40
2.0
 40
2.0
 40
2.0
 40
3.0
 40
3.0
 40
3.0
 40
4.0
 40
4.0
 40
4.0
 40
5.0
 40
5.0
 40
5.0
 40
6.0
 40
6.0
 40
6.0
 40
6.0
 10
208.9195474738118
 20
-114.7864474539423
 30
0.0
 10
208.626369848017
 20
-114.11430932477
 30
0.0
 10
207.8370984723463
 20
-113.8076958265828
 30
0.0
 10
207.1677164195623
 20
-114.1043185478628
 30
0.0
 10
206.4935112330988
 20
-114.3992187214002
 30
0.0
 10
206.1872422444602
 20
-115.1812553965519
 30
0.0
 10
206.4824869275461
 20
-115.8575276403065
 30
0.0
 10
206.4824869275461
 20
-115.8575276403065
 30
0.0
 10
209.004985841846
 20
-121.6067029860914
 30
0.0
 10
209.004985841846
 20
-121.6067029860914
 30
0.0
 10
209.3002305249319
 20
-122.2778075866181
 30
0.0
 10
210.0850232764718
 20
-122.5854546134509
 30
0.0
 10
210.756472386547
 20
-122.290209930365
 30
0.0
 10
211.4296440443648
 20
-121.9956542663761
 30
0.0
 10
211.7359130330035
 20
-121.2105170052877
 30
0.0
 10
211.4434244263058
 20
-120.5380343665669
 30
0.0
 10
211.4434244263058
 20
-120.5380343665669
 30
0.0
 10
208.9195474738118
 20
-114.7864474539423
 30
0.0
 10
208.9195474738118
 20
-114.7864474539423
 30
0.0
  0
SPLINE
  5
4C
330
1F
100
AcDbEntity
  8
Layer 3
 62
    18
420
    65793
370
    35
100
AcDbSpline
210
0.0
220
0.0
230
1.0
 70
    11
 71
     3
 72
    23
 73
    19
 74
     0
 42
0.0000000001
 43
0.0000000001
 40
0.0
 40
0.0
 40
0.0
 40
0.0
 40
1.0
 40
1.0
 40
1.0
 40
2.0
 40
2.0
 40
2.0
 40
3.0
 40
3.0
 40
3.0
 40
4.0
 40
4.0
 40
4.0
 40
5.0
 40
5.0
 40
5.0
 40
6.0
 40
6.0
 40
6.0
 40
6.0
 10
192.3879122782919
 20
-114.1043185478628
 30
0.0
 10
191.7147406204741
 20
-113.8076958265828
 30
0.0
 10
190.9299478689342
 20
-114.11430932477
 30
0.0
 10
190.6353922049453
 20
-114.7864474539423
 30
0.0
 10
190.6353922049453
 20
-114.7864474539423
 30
0.0
 10
188.1135823097424
 20
-120.5380343665669
 30
0.0
 10
188.1135823097424
 20
-120.5380343665669
 30
0.0
 10
187.8204046839477
 20
-121.2105170052877
 30
0.0
 10
188.1252956343923
 20
-121.9956542663761
 30
0.0
 10
188.7967447444675
 20
-122.290209930365
 30
0.0
 10
189.4702609118338
 20
-122.5854546134509
 30
0.0
 10
190.2543646442767
 20
-122.2778075866181
 30
0.0
 10
190.5489203082656
 20
-121.6067029860914
 30
0.0
 10
190.5489203082656
 20
-121.6067029860914
 30
0.0
 10
193.0741752989537
 20
-115.8575276403065
 30
0.0
 10
193.0741752989537
 20
-115.8575276403065
 30
0.0
 10
193.3680419438455
 20
-115.181944415649
 30
0.0
 10
193.0617729552068
 20
-114.3992187214002
 30
0.0
 10
192.3879122782919
 20
-114.1043185478628
 30
0.0
  0
SPLINE
  5
4D
330
1F
100
AcDbEntity
  8
Layer 3
 62
    18
420
    65793
370
    35
100
AcDbSpline
210
0.0
220
0.0
230
1.0
 70
    11
 71
     3
 72
    23
 73
    19
 74
     0
 42
0.0000000001
 43
0.0000000001
 40
0.0
 40
0.0
 40
0.0
 40
0.0
 40
1.0
 40
1.0
 40
1.0
 40
2.0
 40
2.0
 40
2.0
 40
3.0
 40
3.0
 40
3.0
 40
4.0
 40
4.0
 40
4.0
 40
5.0
 40
5.0
 40
5.0
 40
6.0
 40
6.0
 40
6.0
 40
6.0
 10
199.8940863215543
 20
-116.1917019023757
 30
0.0
 10
199.2446858225847
 20
-116.1917019023757
 30
0.0
 10
198.7193087610841
 20
-116.7174234734248
 30
0.0
 10
198.7193087610841
 20
-117.3657904437488
 30
0.0
 10
198.7193087610841
 20
-117.3657904437488
 30
0.0
 10
198.7193087610841
 20
-123.0998073693987
 30
0.0
 10
198.7193087610841
 20
-123.0998073693987
 30
0.0
 10
198.7193087610841
 20
-123.7485188492712
 30
0.0
 10
199.2446858225847
 20
-124.2756184585144
 30
0.0
 10
199.8940863215543
 20
-124.2756184585144
 30
0.0
 10
200.5434868205239
 20
-124.2756184585144
 30
0.0
 10
201.0681748629274
 20
-123.7485188492712
 30
0.0
 10
201.0681748629274
 20
-123.0998073693987
 30
0.0
 10
201.0681748629274
 20
-123.0998073693987
 30
0.0
 10
201.0681748629274
 20
-117.3657904437488
 30
0.0
 10
201.0681748629274
 20
-117.3657904437488
 30
0.0
 10
201.0681748629274
 20
-116.7174234734248
 30
0.0
 10
200.5434868205239
 20
-116.1917019023757
 30
0.0
 10
199.8940863215543
 20
-116.1917019023757
 30
0.0
  0
SPLINE
  5
4E
330
1F
100
AcDbEntity
  8
Layer 3
 62
    18
420
    65793
370
    35
100
AcDbSpline
210
0.0
220
0.0
230
1.0
 70
    11
 71
     3
 72
   107
 73
   103
 74
     0
 42
0.0000000001
 43
0.0000000001
 40
0.0
 40
0.0
 40
0.0
 40
0.0
 40
1.0
 40
1.0
 40
1.0
 40
2.0
 40
2.0
 40
2.0
 40
3.0
 40
3.0
 40
3.0
 40
4.0
 40
4.0
 40
4.0
 40
5.0
 40
5.0
 40
5.0
 40
6.0
 40
6.0
 40
6.0
 40
7.0
 40
7.0
 40
7.0
 40
8.0
 40
8.0
 40
8.0
 40
9.0
 40
9.0
 40
9.0
 40
10.0
 40
10.0
 40
10.0
 40
11.0
 40
11.0
 40
11.0
 40
12.0
 40
12.0
 40
12.0
 40
13.0
 40
13.0
 40
13.0
 40
14.0
 40
14.0
 40
14.0
 40
15.0
 40
15.0
 40
15.0
 40
16.0
 40
16.0
 40
16.0
 40
17.0
 40
17.0
 40
17.0
 40
18.0
 40
18.0
 40
18.0
 40
19.0
 40
19.0
 40
19.0
 40
20.0
 40
20.0
 40
20.0
 40
21.0
 40
21.0
 40
21.0
 40
22.0
 40
22.0
 40
22.0
 40
23.0
 40
23.0
 40
23.0
 40
24.0
 40
24.0
 40
24.0
 40
25.0
 40
25.0
 40
25.0
 40
26.0
 40
26.0
 40
26.0
 40
27.0
 40
27.0
 40
27.0
 40
28.0
 40
28.0
 40
28.0
 40
29.0
 40
29.0
 40
29.0
 40
30.0
 40
30.0
 40
30.0
 40
31.0
 40
31.0
 40
31.0
 40
32.0
 40
32.0
 40
32.0
 40
33.0
 40
33.0
 40
33.0
 40
34.0
 40
34.0
 40
34.0
 40
34.0
 10
204.0526610817994
 20
-97.28570689842164
 30
0.0
 10
204.0182101269469
 20
-97.12309839151784
 30
0.0
 10
203.9720458474445
 20
-96.95876733687142
 30
0.0
 10
203.8928086512838
 20
-96.79064667719123
 30
0.0
 10
203.7467366027091
 20
-96.4578504533161
 30
0.0
 10
203.5296955871384
 20
-96.12436521034391
 30
0.0
 10
203.1135280525203
 20
-95.78743487188648
 30
0.0
 10
203.1135280525203
 20
-95.78743487188648
 30
0.0
 10
202.9939832391821
 20
-95.78743487188648
 30
0.0
 10
202.9939832391821
 20
-95.78743487188648
 30
0.0
 10
202.9939832391821
 20
-95.78743487188648
 30
0.0
 10
202.9529866029076
 20
-97.28570689842164
 30
0.0
 10
202.9529866029076
 20
-97.28570689842164
 30
0.0
 10
202.9529866029076
 20
-97.28570689842164
 30
0.0
 10
199.7473252538826
 20
-97.28570689842164
 30
0.0
 10
199.7473252538826
 20
-97.28570689842164
 30
0.0
 10
199.7473252538826
 20
-97.28570689842164
 30
0.0
 10
199.7473252538826
 20
-96.69452851315276
 30
0.0
 10
199.7473252538826
 20
-96.69452851315276
 30
0.0
 10
199.7507703493679
 20
-96.51366100017715
 30
0.0
 10
199.7442246679459
 20
-96.32900388216775
 30
0.0
 10
199.7518038780134
 20
-96.14469127370688
 30
0.0
 10
199.5757594987172
 20
-95.96106768434306
 30
0.0
 10
199.4048827626488
 20
-95.77606605678515
 30
0.0
 10
199.1613145118416
 20
-95.59416501516397
 30
0.0
 10
198.9163682228404
 20
-95.77606605678515
 30
0.0
 10
198.7430799199323
 20
-95.96106768434306
 30
0.0
 10
198.5656575024419
 20
-96.14469127370688
 30
0.0
 10
198.5784043557373
 20
-96.32900388216775
 30
0.0
 10
198.5694471074757
 20
-96.51366100017715
 30
0.0
 10
198.5711696552183
 20
-96.69452851315276
 30
0.0
 10
198.5711696552183
 20
-96.69452851315276
 30
0.0
 10
198.5711696552183
 20
-97.28570689842164
 30
0.0
 10
198.5711696552183
 20
-97.28570689842164
 30
0.0
 10
198.5711696552183
 20
-97.28570689842164
 30
0.0
 10
195.822672477086
 20
-97.28570689842164
 30
0.0
 10
195.822672477086
 20
-97.28570689842164
 30
0.0
 10
195.7647948729338
 20
-96.72208927703475
 30
0.0
 10
195.6249239962327
 20
-96.15812714609936
 30
0.0
 10
195.2645670084755
 20
-95.59416501516397
 30
0.0
 10
194.905243549364
 20
-96.15812714609936
 30
0.0
 10
194.7664062013084
 20
-96.72208927703475
 30
0.0
 10
194.7078395780592
 20
-97.28570689842164
 30
0.0
 10
194.7078395780592
 20
-97.28570689842164
 30
0.0
 10
192.3110866489708
 20
-97.28570689842164
 30
0.0
 10
192.3110866489708
 20
-97.28570689842164
 30
0.0
 10
192.3110866489708
 20
-97.28570689842164
 30
0.0
 10
192.3110866489708
 20
-98.30924476708935
 30
0.0
 10
192.3110866489708
 20
-98.30924476708935
 30
0.0
 10
192.3110866489708
 20
-98.30924476708935
 30
0.0
 10
194.7105956544474
 20
-98.30924476708935
 30
0.0
 10
194.7105956544474
 20
-98.30924476708935
 30
0.0
 10
194.7664062013084
 20
-98.87871905080115
 30
0.0
 10
194.9111002116889
 20
-99.43958059579982
 30
0.0
 10
195.2645670084755
 20
-100.0035427267352
 30
0.0
 10
195.6204453721018
 20
-99.43958059579982
 30
0.0
 10
195.7647948729338
 20
-98.87871905080115
 30
0.0
 10
195.8206054197948
 20
-98.30924476708935
 30
0.0
 10
195.8206054197948
 20
-98.30924476708935
 30
0.0
 10
198.5711696552183
 20
-98.30924476708935
 30
0.0
 10
198.5711696552183
 20
-98.30924476708935
 30
0.0
 10
198.5711696552183
 20
-98.30924476708935
 30
0.0
 10
198.5711696552183
 20
-98.90042315235823
 30
0.0
 10
198.5711696552183
 20
-98.90042315235823
 30
0.0
 10
198.5711696552183
 20
-98.90042315235823
 30
0.0
 10
198.5711696552183
 20
-99.45198293954672
 30
0.0
 10
198.5711696552183
 20
-99.45198293954672
 30
0.0
 10
198.7496256013543
 20
-99.63491750981349
 30
0.0
 10
198.925325471102
 20
-99.81785208008026
 30
0.0
 10
199.1613145118416
 20
-100.0035427267352
 30
0.0
 10
199.3952364952901
 20
-99.81785208008026
 30
0.0
 10
199.5699028363923
 20
-99.63491750981349
 30
0.0
 10
199.7473252538826
 20
-99.45198293954672
 30
0.0
 10
199.7473252538826
 20
-99.45198293954672
 30
0.0
 10
199.7473252538826
 20
-98.90042315235823
 30
0.0
 10
199.7473252538826
 20
-98.90042315235823
 30
0.0
 10
199.7473252538826
 20
-98.90042315235823
 30
0.0
 10
199.7473252538826
 20
-98.30924476708935
 30
0.0
 10
199.7473252538826
 20
-98.30924476708935
 30
0.0
 10
199.7473252538826
 20
-98.30924476708935
 30
0.0
 10
202.9529866029076
 20
-98.30924476708935
 30
0.0
 10
202.9529866029076
 20
-98.30924476708935
 30
0.0
 10
202.9529866029076
 20
-98.30924476708935
 30
0.0
 10
202.9939832391821
 20
-99.8085503222701
 30
0.0
 10
202.9939832391821
 20
-99.8085503222701
 30
0.0
 10
202.9939832391821
 20
-99.8085503222701
 30
0.0
 10
203.1135280525203
 20
-99.8085503222701
 30
0.0
 10
203.1135280525203
 20
-99.8085503222701
 30
0.0
 10
203.5286620584928
 20
-99.47334253155528
 30
0.0
 10
203.7436360167724
 20
-99.13779023129194
 30
0.0
 10
203.889708065347
 20
-98.80464949786828
 30
0.0
 10
203.9689452615078
 20
-98.63859589547924
 30
0.0
 10
204.0182101269469
 20
-98.47736542676955
 30
0.0
 10
204.0502495149597
 20
-98.30924476708935
 30
0.0
 10
204.0502495149597
 20
-98.30924476708935
 30
0.0
 10
220.960845213857
 20
-98.30924476708935
 30
0.0
 10
220.960845213857
 20
-98.30924476708935
 30
0.0
 10
220.960845213857
 20
-98.30924476708935
 30
0.0
 10
220.960845213857
 20
-97.28570689842164
 30
0.0
 10
220.960845213857
 20
-97.28570689842164
 30
0.0
 10
220.960845213857
 20
-97.28570689842164
 30
0.0
 10
204.0526610817994
 20
-97.28570689842164
 30
0.0
 10
204.0526610817994
 20
-97.28570689842164
 30
0.0
  0
SPLINE
  5
4F
330
1F
100
AcDbEntity
  8
Layer 3
 62
    18
420
    65793
370
    35
100
AcDbSpline
210
0.0
220
0.0
230
1.0
 70
    11
 71
     3
 72
    59
 73
    55
 74
     0
 42
0.0000000001
 43
0.0000000001
 40
0.0
 40
0.0
 40
0.0
 40
0.0
 40
1.0
 40
1.0
 40
1.0
 40
2.0
 40
2.0
 40
2.0
 40
3.0
 40
3.0
 40
3.0
 40
4.0
 40
4.0
 40
4.0
 40
5.0
 40
5.0
 40
5.0
 40
6.0
 40
6.0
 40
6.0
 40
7.0
 40
7.0
 40
7.0
 40
8.0
 40
8.0
 40
8.0
 40
9.0
 40
9.0
 40
9.0
 40
10.0
 40
10.0
 40
10.0
 40
11.0
 40
11.0
 40
11.0
 40
12.0
 40
12.0
 40
12.0
 40
13.0
 40
13.0
 40
13.0
 40
14.0
 40
14.0
 40
14.0
 40
15.0
 40
15.0
 40
15.0
 40
16.0
 40
16.0
 40
16.0
 40
17.0
 40
17.0
 40
17.0
 40
18.0
 40
18.0
 40
18.0
 40
18.0
 10
197.7071397075177
 20
-94.02044539750183
 30
0.0
 10
197.9352050286412
 20
-92.45809459494103
 30
0.0
 10
198.1536240824061
 20
-90.84337834100444
 30
0.0
 10
199.0545165517989
 20
-90.0141438577048
 30
0.0
 10
199.4741291819023
 20
-89.57179359739872
 30
0.0
 10
200.2396293987248
 20
-89.32167966516958
 30
0.0
 10
201.0006509914165
 20
-89.42089841514478
 30
0.0
 10
201.7647731700449
 20
-89.51529403144062
 30
0.0
 10
202.4779079354917
 20
-89.87565101919776
 30
0.0
 10
203.124552358073
 20
-90.29801972568939
 30
0.0
 10
203.7643065896839
 20
-90.75139429154827
 30
0.0
 10
204.4898436988775
 20
-91.20029023327632
 30
0.0
 10
205.2891058514555
 20
-91.46866317157728
 30
0.0
 10
206.0735540934469
 20
-91.73324650484447
 30
0.0
 10
207.0088975176922
 20
-91.99679630946608
 30
0.0
 10
208.019344023516
 20
-91.57649466026561
 30
0.0
 10
208.5075140537759
 20
-91.35015188688469
 30
0.0
 10
208.9243706074911
 20
-90.93122827587831
 30
0.0
 10
209.1186739928592
 20
-90.47234155724303
 30
0.0
 10
209.329169327008
 20
-90.0141438577048
 30
0.0
 10
209.3932481030336
 20
-89.55387910087542
 30
0.0
 10
209.3942816316792
 20
-89.11773001244279
 30
0.0
 10
209.3829128165779
 20
-88.24198674009229
 30
0.0
 10
209.1665608201042
 20
-87.43721243473793
 30
0.0
 10
208.7903563931149
 20
-86.70065101999151
 30
0.0
 10
208.7903563931149
 20
-86.70065101999151
 30
0.0
 10
208.6787352993928
 20
-86.73200138890728
 30
0.0
 10
208.6787352993928
 20
-86.73200138890728
 30
0.0
 10
208.6715005988738
 20
-87.53160805103377
 30
0.0
 10
208.6442843445403
 20
-88.31881236941335
 30
0.0
 10
208.4737521180205
 20
-89.01920028156465
 30
0.0
 10
208.3114881206652
 20
-89.73199053746283
 30
0.0
 10
207.9928167882796
 20
-90.27390405729264
 30
0.0
 10
207.5184271399607
 20
-90.42617727774068
 30
0.0
 10
207.0433484725447
 20
-90.62289222994845
 30
0.0
 10
206.31574430606
 20
-90.58534068915922
 30
0.0
 10
205.6053656170014
 20
-90.40964081941148
 30
0.0
 10
204.8874077178754
 20
-90.22016056772274
 30
0.0
 10
204.1801296147536
 20
-89.98313799833755
 30
0.0
 10
203.4098062642517
 20
-89.72062172236151
 30
0.0
 10
202.6301811559397
 20
-89.46361759916188
 30
0.0
 10
201.8577907481467
 20
-89.23417423984424
 30
0.0
 10
201.0661078056362
 20
-89.04400496905845
 30
0.0
 10
200.2961289646829
 20
-88.86554902292251
 30
0.0
 10
199.339425948429
 20
-88.69363875820854
 30
0.0
 10
198.469883847952
 20
-89.22935110616488
 30
0.0
 10
197.6251464349687
 20
-89.78159991245043
 30
0.0
 10
197.3078531407772
 20
-90.76172957800402
 30
0.0
 10
197.2303384923591
 20
-91.58889700401251
 30
0.0
 10
197.1476562007131
 20
-92.44018009841774
 30
0.0
 10
197.2816704150893
 20
-93.2738932058482
 30
0.0
 10
197.5917290087618
 20
-94.04042695131629
 30
0.0
 10
197.5917290087618
 20
-94.04042695131629
 30
0.0
 10
197.7071397075177
 20
-94.02044539750183
 30
0.0
 10
197.7071397075177
 20
-94.02044539750183
 30
0.0
  0
SPLINE
  5
50
330
1F
100
AcDbEntity
  8
Layer 3
 62
    18
420
    65793
370
    35
100
AcDbSpline
210
0.0
220
0.0
230
1.0
 70
     8
 71
     3
 72
    11
 73
     7
 74
     0
 42
0.0000000001
 43
0.0000000001
 40
0.0
 40
0.0
 40
0.0
 40
0.0
 40
1.0
 40
1.0
 40
1.0
 40
2.0
 40
2.0
 40
2.0
 40
2.0
 10
193.6029974559395
 20
-137.8517062372385
 30
0.0
 10
193.6029974559395
 20
-144.5103867911293
 30
0.0
 10
201.1884086953626
 20
-149.904372792385
 30
0.0
 10
210.5501111669805
 20
-149.904372792385
 30
0.0
 10
219.9111246195014
 20
-149.904372792385
 30
0.0
 10
227.5020480117009
 20
-144.5103867911293
 30
0.0
 10
227.5020480117009
 20
-137.8517062372385
 30
0.0
  0
POLYLINE
  5
51
330
1F
100
AcDbEntity
  8
Layer 3
 62
    18
420
    65793
370
    35
100
AcDb2dPolyline
 66
     1
 10
0.0
 20
0.0
 30
0.0
  0
VERTEX
  5
52
330
51
100
AcDbEntity
  8
Layer 3
 62
    18
420
    65793
370
    35
100
AcDbVertex
100
AcDb2dVertex
 10
193.6029974559395
 20
-137.3638807165271
 30
0.0
  0
VERTEX
  5
53
330
51
100
AcDbEntity
  8
Layer 3
 62
    18
420
    65793
370
    35
100
AcDbVertex
100
AcDb2dVertex
 10
227.4445149170972
 20
-137.3638807165271
 30
0.0
  0
VERTEX
  5
54
330
51
100
AcDbEntity
  8
Layer 3
 62
    18
420
    65793
370
    35
100
AcDbVertex
100
AcDb2dVertex
 10
227.4445149170972
 20
-132.881811490217
 30
0.0
  0
VERTEX
  5
55
330
51
100
AcDbEntity
  8
Layer 3
 62
    18
420
    65793
370
    35
100
AcDbVertex
100
AcDb2dVertex
 10
193.6029974559395
 20
-132.881811490217
 30
0.0
  0
VERTEX
  5
56
330
51
100
AcDbEntity
  8
Layer 3
 62
    18
420
    65793
370
    35
100
AcDbVertex
100
AcDb2dVertex
 10
193.6029974559395
 20
-137.3638807165271
 30
0.0
  0
SEQEND
  5
57
330
51
100
AcDbEntity
  8
Layer 3
370
    35
  0
POLYLINE
  5
58
330
1F
100
AcDbEntity
  8
Layer 3
 62
    18
420
    65793
370
    35
100
AcDb2dPolyline
 66
     1
 10
0.0
 20
0.0
 30
0.0
  0
VERTEX
  5
59
330
58
100
AcDbEntity
  8
Layer 3
 62
    18
420
    65793
370
    35
100
AcDbVertex
100
AcDb2dVertex
 10
206.1638155951605
 20
-151.2503715984721
 30
0.0
  0
VERTEX
  5
5A
330
58
100
AcDbEntity
  8
Layer 3
 62
    18
420
    65793
370
    35
100
AcDbVertex
100
AcDb2dVertex
 10
214.8836967778763
 20
-151.2503715984721
 30
0.0
  0
VERTEX
  5
5B
330
58
100
AcDbEntity
  8
Layer 3
 62
    18
420
    65793
370
    35
100
AcDbVertex
100
AcDb2dVertex
 10
214.8836967778763
 20
-149.5860459695479
 30
0.0
  0
VERTEX
  5
5C
330
58
100
AcDbEntity
  8
Layer 3
 62
    18
420
    65793
370
    35
100
AcDbVertex
100
AcDb2dVertex
 10
206.1638155951605
 20
-149.5860459695479
 30
0.0
  0
VERTEX
  5
5D
330
58
100
AcDbEntity
  8
Layer 3
 62
    18
420
    65793
370
    35
100
AcDbVertex
100
AcDb2dVertex
 10
206.1638155951605
 20
-151.2503715984721
 30
0.0
  0
SEQEND
  5
5E
330
58
100
AcDbEntity
  8
Layer 3
370
    35
  0
POLYLINE
  5
5F
330
1F
100
AcDbEntity
  8
Layer 3
 62
    18
420
    65793
370
    35
100
AcDb2dPolyline
 66
     1
 10
0.0
 20
0.0
 30
0.0
  0
VERTEX
  5
60
330
5F
100
AcDbEntity
  8
Layer 3
 62
    18
420
    65793
370
    35
100
AcDbVertex
100
AcDb2dVertex
 10
214.2511772467844
 20
-134.611593933361
 30
0.0
  0
VERTEX
  5
61
330
5F
100
AcDbEntity
  8
Layer 3
 62
    18
420
    65793
370
    35
100
AcDbVertex
100
AcDb2dVertex
 10
224.786623750227
 20
-114.3399630790539
 30
0.0
  0
VERTEX
  5
62
330
5F
100
AcDbEntity
  8
Layer 3
 62
    18
420
    65793
370
    35
100
AcDbVertex
100
AcDb2dVertex
 10
225.7784667404304
 20
-114.8536268159046
 30
0.0
  0
VERTEX
  5
63
330
5F
100
AcDbEntity
  8
Layer 3
 62
    18
420
    65793
370
    35
100
AcDbVertex
100
AcDb2dVertex
 10
215.2478433706672
 20
-135.1231906129206
 30
0.0
  0
VERTEX
  5
64
330
5F
100
AcDbEntity
  8
Layer 3
 62
    18
420
    65793
370
    35
100
AcDbVertex
100
AcDb2dVertex
 10
214.2511772467844
 20
-134.611593933361
 30
0.0
  0
SEQEND
  5
65
330
5F
100
AcDbEntity
  8
Layer 3
370
    35
  0
POLYLINE
  5
66
330
1F
100
AcDbEntity
  8
Layer 3
 62
    18
420
    65793
370
    35
100
AcDb2dPolyline
 66
     1
 10
0.0
 20
0.0
 30
0.0
  0
VERTEX
  5
67
330
66
100
AcDbEntity
  8
Layer 3
 62
    18
420
    65793
370
    35
100
AcDbVertex
100
AcDb2dVertex
 10
215.1179632708733
 20
-132.7908609694065
 30
0.0
  0
VERTEX
  5
68
330
66
100
AcDbEntity
  8
Layer 3
 62
    18
420
    65793
370
    35
100
AcDbVertex
100
AcDb2dVertex
 10
230.5278753763958
 20
-115.9240179831718
 30
0.0
  0
VERTEX
  5
69
330
66
100
AcDbEntity
  8
Layer 3
 62
    18
420
    65793
370
    35
100
AcDbVertex
100
AcDb2dVertex
 10
231.3543537833073
 20
-116.6743597798592
 30
0.0
  0
VERTEX
  5
6A
330
66
100
AcDbEntity
  8
Layer 3
 62
    18
420
    65793
370
    35
100
AcDbVertex
100
AcDb2dVertex
 10
215.9454752064303
 20
-133.5449923711276
 30
0.0
  0
VERTEX
  5
6B
330
66
100
AcDbEntity
  8
Layer 3
 62
    18
420
    65793
370
    35
100
AcDbVertex
100
AcDb2dVertex
 10
215.1179632708733
 20
-132.7908609694065
 30
0.0
  0
SEQEND
  5
6C
330
66
100
AcDbEntity
  8
Layer 3
370
    35
  0
POLYLINE
  5
6D
330
1F
100
AcDbEntity
  8
Layer 3
 62
    18
420
    65793
370
    35
100
AcDb2dPolyline
 66
     1
 10
0.0
 20
0.0
 30
0.0
  0
VERTEX
  5
6E
330
6D
100
AcDbEntity
  8
Layer 3
 62
    18
420
    65793
370
    35
100
AcDbVertex
100
AcDb2dVertex
 10
221.0924478613936
 20
-101.103906224724
 30
0.0
  0
VERTEX
  5
6F
330
6D
100
AcDbEntity
  8
Layer 3
 62
    18
420
    65793
370
    35
100
AcDbVertex
100
AcDb2dVertex
 10
230.2408989224745
 20
-87.0120876518581
 30
0.0
  0
VERTEX
  5
70
330
6D
100
AcDbEntity
  8
Layer 3
 62
    18
420
    65793
370
    35
100
AcDbVertex
100
AcDb2dVertex
 10
231.8942002458459
 20
-88.1469021046994
 30
0.0
  0
VERTEX
  5
71
330
6D
100
AcDbEntity
  8
Layer 3
 62
    18
420
    65793
370
    35
100
AcDbVertex
100
AcDb2dVertex
 10
225.2572237935121
 20
-98.55040145105684
 30
0.0
  0
SEQEND
  5
72
330
6D
100
AcDbEntity
  8
Layer 3
370
    35
  0
POLYLINE
  5
73
330
1F
100
AcDbEntity
  8
Layer 3
 62
    18
420
    65793
370
    35
100
AcDb2dPolyline
 66
     1
 10
0.0
 20
0.0
 30
0.0
  0
VERTEX
  5
74
330
73
100
AcDbEntity
  8
Layer 3
 62
    18
420
    65793
370
    35
100
AcDbVertex
100
AcDb2dVertex
 10
222.5101046535739
 20
-102.76547577726
 30
0.0
  0
VERTEX
  5
75
330
73
100
AcDbEntity
  8
Layer 3
 62
    18
420
    65793
370
    35
100
AcDbVertex
100
AcDb2dVertex
 10
212.7608289398653
 20
-118.1388698706389
 30
0.0
  0
VERTEX
  5
76
330
73
100
AcDbEntity
  8
Layer 3
 62
    18
420
    65793
370
    35
100
AcDbVertex
100
AcDb2dVertex
 10
210.9366508804256
 20
-116.9975097363756
 30
0.0
  0
VERTEX
  5
77
330
73
100
AcDbEntity
  8
Layer 3
 62
    18
420
    65793
370
    35
100
AcDbVertex
100
AcDb2dVertex
 10
218.4555717769833
 20
-105.2576578512898
 30
0.0
  0
SEQEND
  5
78
330
73
100
AcDbEntity
  8
Layer 3
370
    35
  0
POLYLINE
  5
79
330
1F
100
AcDbEntity
  8
Layer 3
 62
    18
420
    65793
370
    35
100
AcDb2dPolyline
 66
     1
 10
0.0
 20
0.0
 30
0.0
  0
VERTEX
  5
7A
330
79
100
AcDbEntity
  8
Layer 3
 62
    18
420
    65793
370
    35
100
AcDbVertex
100
AcDb2dVertex
 10
225.2572237935121
 20
-98.55040145105684
 30
0.0
  0
VERTEX
  5
7B
330
79
100
AcDbEntity
  8
Layer 3
 62
    18
420
    65793
370
    35
100
AcDbVertex
100
AcDb2dVertex
 10
235.4605630921765
 20
-92.278260610611
 30
0.0
  0
VERTEX
  5
7C
330
79
100
AcDbEntity
  8
Layer 3
 62
    18
420
    65793
370
    35
100
AcDbVertex
100
AcDb2dVertex
 10
236.6043347932795
 20
-94.10071612230816
 30
0.0
  0
VERTEX
  5
7D
330
79
100
AcDbEntity
  8
Layer 3
 62
    18
420
    65793
370
    35
100
AcDbVertex
100
AcDb2dVertex
 10
222.5101046535739
 20
-102.76547577726
 30
0.0
  0
SEQEND
  5
7E
330
79
100
AcDbEntity
  8
Layer 3
370
    35
  0
POLYLINE
  5
7F
330
1F
100
AcDbEntity
  8
Layer 3
 62
    18
420
    65793
370
    35
100
AcDb2dPolyline
 66
     1
 10
0.0
 20
0.0
 30
0.0
  0
VERTEX
  5
80
330
7F
100
AcDbEntity
  8
Layer 3
 62
    18
420
    65793
370
    35
100
AcDbVertex
100
AcDb2dVertex
 10
218.4555717769833
 20
-105.2576578512898
 30
0.0
  0
VERTEX
  5
81
330
7F
100
AcDbEntity
  8
Layer 3
 62
    18
420
    65793
370
    35
100
AcDbVertex
100
AcDb2dVertex
 10
206.2978298095367
 20
-112.7317925065393
 30
0.0
  0
VERTEX
  5
82
330
7F
100
AcDbEntity
  8
Layer 3
 62
    18
420
    65793
370
    35
100
AcDbVertex
100
AcDb2dVertex
 10
205.1544026179822
 20
-110.907958956648
 30
0.0
  0
VERTEX
  5
83
330
7F
100
AcDbEntity
  8
Layer 3
 62
    18
420
    65793
370
    35
100
AcDbVertex
100
AcDb2dVertex
 10
221.0924478613936
 20
-101.1094183775004
 30
0.0
  0
SEQEND
  5
84
330
7F
100
AcDbEntity
  8
Layer 3
370
    35
  0
POLYLINE
  5
86
330
1F
100
AcDbEntity
  8
Layer 1
 62
   250
420
  2301728
370
    35
100
AcDb2dPolyline
 66
     1
 10
0.0
 20
0.0
 30
0.0
  0
VERTEX
  5
87
330
86
100
AcDbEntity
  8
Layer 1
 62
   250
420
  2301728
370
    35
100
AcDbVertex
100
AcDb2dVertex
 10
10.0000786650347
 20
-10.0000786650347
 30
0.0
  0
VERTEX
  5
88
330
86
100
AcDbEntity
  8
Layer 1
 62
   250
420
  2301728
370
    35
100
AcDbVertex
100
AcDb2dVertex
 10
10.0000786650347
 20
-30.00006374032985
 30
0.0
  0
VERTEX
  5
89
330
86
100
AcDbEntity
  8
Layer 1
 62
   250
420
  2301728
370
    35
100
AcDbVertex
100
AcDb2dVertex
 10
160.0002251119097
 20
-30.00006374032985
 30
0.0
  0
VERTEX
  5
8A
330
86
100
AcDbEntity
  8
Layer 1
 62
   250
420
  2301728
370
    35
100
AcDbVertex
100
AcDb2dVertex
 10
160.0002251119097
 20
-47.50011527675345
 30
0.0
  0
VERTEX
  5
8B
330
86
100
AcDbEntity
  8
Layer 1
 62
   250
420
  2301728
370
    35
100
AcDbVertex
100
AcDb2dVertex
 10
10.0000786650347
 20
-47.50011527675345
 30
0.0
  0
VERTEX
  5
8C
330
86
100
AcDbEntity
  8
Layer 1
 62
   250
420
  2301728
370
    35
100
AcDbVertex
100
AcDb2dVertex
 10
10.0000786650347
 20
-60.00012748065969
 30
0.0
  0
VERTEX
  5
8D
330
86
100
AcDbEntity
  8
Layer 1
 62
   250
420
  2301728
370
    35
100
AcDbVertex
100
AcDb2dVertex
 10
160.0002251119097
 20
-60.00012748065969
 30
0.0
  0
VERTEX
  5
8E
330
86
100
AcDbEntity
  8
Layer 1
 62
   250
420
  2301728
370
    35
100
AcDbVertex
100
AcDb2dVertex
 10
160.0002251119097
 20
-77.5001790170833
 30
0.0
  0
VERTEX
  5
8F
330
86
100
AcDbEntity
  8
Layer 1
 62
   250
420
  2301728
370
    35
100
AcDbVertex
100
AcDb2dVertex
 10
10.0000786650347
 20
-77.5001790170833
 30
0.0
  0
VERTEX
  5
90
330
86
100
AcDbEntity
  8
Layer 1
 62
   250
420
  2301728
370
    35
100
AcDbVertex
100
AcDb2dVertex
 10
10.0000786650347
 20
-90.00001896621528
 30
0.0
  0
VERTEX
  5
91
330
86
100
AcDbEntity
  8
Layer 1
 62
   250
420
  2301728
370
    35
100
AcDbVertex
100
AcDb2dVertex
 10
160.0002251119097
 20
-90.00001896621528
 30
0.0
  0
VERTEX
  5
92
330
86
100
AcDbEntity
  8
Layer 1
 62
   250
420
  2301728
370
    35
100
AcDbVertex
100
AcDb2dVertex
 10
160.0002251119097
 20
-107.5000705026389
 30
0.0
  0
VERTEX
  5
93
330
86
100
AcDbEntity
  8
Layer 1
 62
   250
420
  2301728
370
    35
100
AcDbVertex
100
AcDb2dVertex
 10
10.0000786650347
 20
-107.5000705026389
 30
0.0
  0
VERTEX
  5
94
330
86
100
AcDbEntity
  8
Layer 1
 62
   250
420
  2301728
370
    35
100
AcDbVertex
100
AcDb2dVertex
 10
10.0000786650347
 20
-120.0002549613194
 30
0.0
  0
VERTEX
  5
95
330
86
100
AcDbEntity
  8
Layer 1
 62
   250
420
  2301728
370
    35
100
AcDbVertex
100
AcDb2dVertex
 10
160.0002251119097
 20
-120.0002549613194
 30
0.0
  0
VERTEX
  5
96
330
86
100
AcDbEntity
  8
Layer 1
 62
   250
420
  2301728
370
    35
100
AcDbVertex
100
AcDb2dVertex
 10
160.0002251119097
 20
-137.500306497743
 30
0.0
  0
VERTEX
  5
97
330
86
100
AcDbEntity
  8
Layer 1
 62
   250
420
  2301728
370
    35
100
AcDbVertex
100
AcDb2dVertex
 10
10.0000786650347
 20
-137.500306497743
 30
0.0
  0
VERTEX
  5
98
330
86
100
AcDbEntity
  8
Layer 1
 62
   250
420
  2301728
370
    35
100
AcDbVertex
100
AcDb2dVertex
 10
10.0000786650347
 20
-160.0002251119097
 30
0.0
  0
VERTEX
  5
99
330
86
100
AcDbEntity
  8
Layer 1
 62
   250
420
  2301728
370
    35
100
AcDbVertex
100
AcDb2dVertex
 10
250.0005885876735
 20
-160.0002251119097
 30
0.0
  0
VERTEX
  5
9A
330
86
100
AcDbEntity
  8
Layer 1
 62
   250
420
  2301728
370
    35
100
AcDbVertex
100
AcDb2dVertex
 10
250.0005885876735
 20
-10.0000786650347
 30
0.0
  0
VERTEX
  5
9B
330
86
100
AcDbEntity
  8
Layer 1
 62
   250
420
  2301728
370
    35
100
AcDbVertex
100
AcDb2dVertex
 10
10.0000786650347
 20
-10.0000786650347
 30
0.0
  0
SEQEND
  5
9C
330
86
100
AcDbEntity
  8
Layer 1
370
    35
  0
INSERT
  5
9F
330
1F
100
AcDbEntity
  8
Layer 2
100
AcDbBlockReference
  2
block 2
 10
0.0
 20
0.0
 30
0.0
  0
INSERT
  5
A5
330
1F
100
AcDbEntity
  8
Layer 2
100
AcDbBlockReference
  2
block 3
 10
0.0
 20
0.0
 30
0.0
  0
INSERT
  5
AB
330
1F
100
AcDbEntity
  8
Layer 2
100
AcDbBlockReference
  2
block 4
 10
0.0
 20
0.0
 30
0.0
  0
INSERT
  5
D8
330
1F
100
AcDbEntity
  8
Layer 2
100
AcDbBlockReference
  2
block 5
 10
0.0
 20
0.0
 30
0.0
  0
ENDSEC
  0
SECTION
  2
OBJECTS
  0
DICTIONARY
  5
C
330
0
100
AcDbDictionary
281
     1
  3
ACAD_GROUP
350
D
  3
ACAD_LAYOUT
350
1A
  3
ACAD_MLINESTYLE
350
17
  3
ACAD_PLOTSETTINGS
350
19
  3
ACAD_PLOTSTYLENAME
350
E
  3
ACAD_TABLESTYLE
350
EB
  3
ACAD_VISUALSTYLE
350
2A
  0
DICTIONARY
  5
D
102
{ACAD_REACTORS
330
C
102
}
330
C
100
AcDbDictionary
281
     1
  0
DICTIONARY
  5
1A
102
{ACAD_REACTORS
330
C
102
}
330
C
100
AcDbDictionary
281
     1
  3
Layout1
350
1E
  3
Layout2
350
26
  3
Model
350
22
  0
DICTIONARY
  5
17
102
{ACAD_REACTORS
330
C
102
}
330
C
100
AcDbDictionary
281
     1
  3
Standard
350
18
  0
DICTIONARY
  5
19
102
{ACAD_REACTORS
330
C
102
}
330
C
100
AcDbDictionary
281
     1
  0
ACDBDICTIONARYWDFLT
  5
E
102
{ACAD_REACTORS
330
C
102
}
330
C
100
AcDbDictionary
281
     1
  3
Normal
350
F
100
AcDbDictionaryWithDefault
340
F
  0
DICTIONARY
  5
EB
102
{ACAD_REACTORS
330
C
102
}
330
C
100
AcDbDictionary
281
     1
  0
DICTIONARY
  5
2A
102
{ACAD_REACTORS
330
C
102
}
330
C
100
AcDbDictionary
281
     1
  3
2dWireframe
350
2F
  3
3D Hidden
350
31
  3
3dWireframe
350
30
  3
Basic
350
32
  3
Brighten
350
36
  3
ColorChange
350
3A
  3
Conceptual
350
34
  3
Dim
350
35
  3
Facepattern
350
39
  3
Flat
350
2B
  3
FlatWithEdges
350
2C
  3
Gouraud
350
2D
  3
GouraudWithEdges
350
2E
  3
Linepattern
350
38
  3
Realistic
350
33
  3
Thicken
350
37
  0
LAYOUT
  5
1E
102
{ACAD_REACTORS
330
1A
102
}
330
1A
100
AcDbPlotSettings
  1

  2
none_device
  4

  6

 40
0.0
 41
0.0
 42
0.0
 43
0.0
 44
0.0
 45
0.0
 46
0.0
 47
0.0
 48
0.0
 49
0.0
140
0.0
141
0.0
142
1.0
143
1.0
 70
   688
 72
     0
 73
     0
 74
     5
  7

 75
    16
 76
     0
 77
     2
 78
   300
147
1.0
148
0.0
149
0.0
100
AcDbLayout
  1
Layout1
 70
     1
 71
     1
 10
0.0
 20
0.0
 11
12.0
 21
9.0
 12
0.0
 22
0.0
 32
0.0
 14
1.000000000000000E+20
 24
1.000000000000000E+20
 34
1.000000000000000E+20
 15
-1.000000000000000E+20
 25
-1.000000000000000E+20
 35
-1.000000000000000E+20
146
0.0
 13
0.0
 23
0.0
 33
0.0
 16
1.0
 26
0.0
 36
0.0
 17
0.0
 27
1.0
 37
0.0
 76
     0
330
1B
  0
LAYOUT
  5
26
102
{ACAD_REACTORS
330
1A
102
}
330
1A
100
AcDbPlotSettings
  1

  2
none_device
  4

  6

 40
0.0
 41
0.0
 42
0.0
 43
0.0
 44
0.0
 45
0.0
 46
0.0
 47
0.0
 48
0.0
 49
0.0
140
0.0
141
0.0
142
1.0
143
1.0
 70
   688
 72
     0
 73
     0
 74
     5
  7

 75
    16
 76
     0
 77
     2
 78
   300
147
1.0
148
0.0
149
0.0
100
AcDbLayout
  1
Layout2
 70
     1
 71
     2
 10
0.0
 20
0.0
 11
0.0
 21
0.0
 12
0.0
 22
0.0
 32
0.0
 14
0.0
 24
0.0
 34
0.0
 15
0.0
 25
0.0
 35
0.0
146
0.0
 13
0.0
 23
0.0
 33
0.0
 16
1.0
 26
0.0
 36
0.0
 17
0.0
 27
1.0
 37
0.0
 76
     0
330
23
  0
LAYOUT
  5
22
102
{ACAD_REACTORS
330
1A
102
}
330
1A
100
AcDbPlotSettings
  1

  2
none_device
  4

  6

 40
0.0
 41
0.0
 42
0.0
 43
0.0
 44
0.0
 45
0.0
 46
0.0
 47
0.0
 48
0.0
 49
0.0
140
0.0
141
0.0
142
1.0
143
1.0
 70
  1712
 72
     0
 73
     0
 74
     0
  7

 75
     0
 76
     0
 77
     2
 78
   300
147
1.0
148
0.0
149
0.0
100
AcDbLayout
  1
Model
 70
     1
 71
     0
 10
0.0
 20
0.0
 11
12.0
 21
9.0
 12
0.0
 22
0.0
 32
0.0
 14
1.000000000000000E+20
 24
1.000000000000000E+20
 34
1.000000000000000E+20
 15
-1.000000000000000E+20
 25
-1.000000000000000E+20
 35
-1.000000000000000E+20
146
0.0
 13
0.0
 23
0.0
 33
0.0
 16
1.0
 26
0.0
 36
0.0
 17
0.0
 27
1.0
 37
0.0
 76
     0
330
1F
331
29
  0
MLINESTYLE
  5
18
102
{ACAD_REACTORS
330
17
102
}
330
17
100
AcDbMlineStyle
  2
Standard
 70
     0
  3

 62
   256
 51
90.0
 52
90.0
 71
     2
 49
0.5
 62
   256
  6
BYLAYER
 49
-0.5
 62
   256
  6
BYLAYER
  0
ACDBPLACEHOLDER
  5
F
102
{ACAD_REACTORS
330
E
102
}
330
E
  0
VISUALSTYLE
  5
2F
102
{ACAD_REACTORS
330
2A
102
}
330
2A
100
AcDbVisualStyle
  2
2dWireframe
 70
     4
 71
     0
 72
     2
 73
     0
 90
        0
 40
-0.6
 41
-30.0
 62
     5
 63
     7
421
 16777215
 74
     1
 91
        4
 64
     7
 65
   257
 75
     1
175
     1
 42
1.0
 92
        0
 66
   257
 43
1.0
 76
     1
 77
     6
 78
     2
 67
     7
 79
     5
170
     0
171
     0
290
     0
174
     0
 93
        1
 44
0.0
173
     0
291
     0
 45
0.0
1001
ACAD
1000
AcDbSavedByObjectVersion
1070
     0
  0
VISUALSTYLE
  5
31
102
{ACAD_REACTORS
330
2A
102
}
330
2A
100
AcDbVisualStyle
  2
3D Hidden
 70
     6
 71
     1
 72
     2
 73
     2
 90
        0
 40
-0.6
 41
-30.0
 62
     5
 63
     7
421
 16777215
 74
     2
 91
        2
 64
     7
 65
   257
 75
     2
175
     1
 42
40.0
 92
        0
 66
   257
 43
1.0
 76
     1
 77
     6
 78
     2
 67
     7
 79
     3
170
     0
171
     0
290
     0
174
     0
 93
        1
 44
0.0
173
     0
291
     0
 45
0.0
1001
ACAD
1000
AcDbSavedByObjectVersion
1070
     0
  0
VISUALSTYLE
  5
30
102
{ACAD_REACTORS
330
2A
102
}
330
2A
100
AcDbVisualStyle
  2
3dWireframe
 70
     5
 71
     0
 72
     2
 73
     0
 90
        0
 40
-0.6
 41
-30.0
 62
     5
 63
     7
421
 16777215
 74
     1
 91
        4
 64
     7
 65
   257
 75
     1
175
     1
 42
1.0
 92
        0
 66
   257
 43
1.0
 76
     1
 77
     6
 78
     2
 67
     7
 79
     5
170
     0
171
     0
290
     0
174
     0
 93
        1
 44
0.0
173
     0
291
     0
 45
0.0
1001
ACAD
1000
AcDbSavedByObjectVersion
1070
     0
  0
VISUALSTYLE
  5
32
102
{ACAD_REACTORS
330
2A
102
}
330
2A
100
AcDbVisualStyle
  2
Basic
 70
     7
 71
     1
 72
     0
 73
     1
 90
        0
 40
-0.6
 41
-30.0
 62
     5
 63
     7
421
 16777215
 74
     0
 91
        4
 64
     7
 65
   257
 75
     1
175
     1
 42
1.0
 92
        8
 66
     7
 43
1.0
 76
     1
 77
     6
 78
     2
 67
     7
 79
     5
170
     0
171
     0
290
     0
174
     0
 93
        1
 44
0.0
173
     0
291
     1
 45
0.0
1001
ACAD
1000
AcDbSavedByObjectVersion
1070
     0
  0
VISUALSTYLE
  5
36
102
{ACAD_REACTORS
330
2A
102
}
330
2A
100
AcDbVisualStyle
  2
Brighten
 70
    12
 71
     2
 72
     2
 73
     0
 90
        0
 40
-0.6
 41
-30.0
 62
     5
 63
     7
421
 16777215
 74
     1
 91
        4
 64
     7
 65
   257
 75
     1
175
     1
 42
1.0
 92
        8
 66
     7
 43
1.0
 76
     1
 77
     6
 78
     2
 67
     7
 79
     5
170
     0
171
     0
290
     0
174
     0
 93
        1
 44
50.0
173
     0
291
     1
 45
0.0
1001
ACAD
1000
AcDbSavedByObjectVersion
1070
     0
  0
VISUALSTYLE
  5
3A
102
{ACAD_REACTORS
330
2A
102
}
330
2A
100
AcDbVisualStyle
  2
ColorChange
 70
    16
 71
     2
 72
     2
 73
     3
 90
        0
 40
-0.6
 41
-30.0
 62
     5
 63
     8
421
  8421504
 74
     1
 91
        4
 64
     7
 65
   257
 75
     1
175
     1
 42
1.0
 92
        8
 66
     8
424
  8421504
 43
1.0
 76
     1
 77
     6
 78
     2
 67
     7
 79
     5
170
     0
171
     0
290
     0
174
     0
 93
        1
 44
0.0
173
     0
291
     1
 45
0.0
1001
ACAD
1000
AcDbSavedByObjectVersion
1070
     0
  0
VISUALSTYLE
  5
34
102
{ACAD_REACTORS
330
2A
102
}
330
2A
100
AcDbVisualStyle
  2
Conceptual
 70
     9
 71
     3
 72
     2
 73
     0
 90
        0
 40
-0.6
 41
-30.0
 62
     5
 63
     7
421
 16777215
 74
     2
 91
        2
 64
     7
 65
   257
 75
     1
175
     1
 42
40.0
 92
        8
 66
     7
 43
1.0
 76
     1
 77
     6
 78
     2
 67
     7
 79
     3
170
     0
171
     0
290
     0
174
     0
 93
        1
 44
0.0
173
     0
291
     0
 45
0.0
1001
ACAD
1000
AcDbSavedByObjectVersion
1070
     0
  0
VISUALSTYLE
  5
35
102
{ACAD_REACTORS
330
2A
102
}
330
2A
100
AcDbVisualStyle
  2
Dim
 70
    11
 71
     2
 72
     2
 73
     0
 90
        0
 40
-0.6
 41
-30.0
 62
     5
 63
     7
421
 16777215
 74
     1
 91
        4
 64
     7
 65
   257
 75
     1
175
     1
 42
1.0
 92
        8
 66
     7
 43
1.0
 76
     1
 77
     6
 78
     2
 67
     7
 79
     5
170
     0
171
     0
290
     0
174
     0
 93
        1
 44
-50.0
173
     0
291
     1
 45
0.0
1001
ACAD
1000
AcDbSavedByObjectVersion
1070
     0
  0
VISUALSTYLE
  5
39
102
{ACAD_REACTORS
330
2A
102
}
330
2A
100
AcDbVisualStyle
  2
Facepattern
 70
    15
 71
     2
 72
     2
 73
     0
 90
        0
 40
-0.6
 41
-30.0
 62
     5
 63
     7
421
 16777215
 74
     1
 91
        4
 64
     7
 65
   257
 75
     1
175
     1
 42
1.0
 92
        8
 66
     7
 43
1.0
 76
     1
 77
     6
 78
     2
 67
     7
 79
     5
170
     0
171
     0
290
     0
174
     0
 93
        1
 44
0.0
173
     0
291
     1
 45
0.0
1001
ACAD
1000
AcDbSavedByObjectVersion
1070
     0
  0
VISUALSTYLE
  5
2B
102
{ACAD_REACTORS
330
2A
102
}
330
2A
100
AcDbVisualStyle
  2
Flat
 70
     0
 71
     2
 72
     1
 73
     1
 90
        2
 40
-0.6
 41
30.0
 62
     5
 63
     7
421
 16777215
 74
     0
 91
        4
 64
     7
 65
   257
 75
     1
175
     1
 42
1.0
 92
        8
 66
     7
 43
1.0
 76
     1
 77
     6
 78
     2
 67
     7
 79
     5
170
     0
171
     0
290
     0
174
     0
 93
       13
 44
0.0
173
     0
291
     1
 45
0.0
1001
ACAD
1000
AcDbSavedByObjectVersion
1070
     0
  0
VISUALSTYLE
  5
2C
102
{ACAD_REACTORS
330
2A
102
}
330
2A
100
AcDbVisualStyle
  2
FlatWithEdges
 70
     1
 71
     2
 72
     1
 73
     1
 90
        2
 40
-0.6
 41
30.0
 62
     5
 63
     7
421
 16777215
 74
     1
 91
        4
 64
     7
 65
   257
 75
     1
175
     1
 42
1.0
 92
        0
 66
   257
 43
1.0
 76
     1
 77
     6
 78
     2
 67
     7
 79
     5
170
     0
171
     0
290
     0
174
     0
 93
       13
 44
0.0
173
     0
291
     1
 45
0.0
1001
ACAD
1000
AcDbSavedByObjectVersion
1070
     0
  0
VISUALSTYLE
  5
2D
102
{ACAD_REACTORS
330
2A
102
}
330
2A
100
AcDbVisualStyle
  2
Gouraud
 70
     2
 71
     2
 72
     2
 73
     1
 90
        2
 40
-0.6
 41
30.0
 62
     5
 63
     7
421
 16777215
 74
     0
 91
        4
 64
     7
 65
   257
 75
     1
175
     1
 42
1.0
 92
        0
 66
     7
 43
1.0
 76
     1
 77
     6
 78
     2
 67
     7
 79
     5
170
     0
171
     0
290
     0
174
     0
 93
       13
 44
0.0
173
     0
291
     1
 45
0.0
1001
ACAD
1000
AcDbSavedByObjectVersion
1070
     0
  0
VISUALSTYLE
  5
2E
102
{ACAD_REACTORS
330
2A
102
}
330
2A
100
AcDbVisualStyle
  2
GouraudWithEdges
 70
     3
 71
     2
 72
     2
 73
     1
 90
        2
 40
-0.6
 41
30.0
 62
     5
 63
     7
421
 16777215
 74
     1
 91
        4
 64
     7
 65
   257
 75
     1
175
     1
 42
1.0
 92
        0
 66
   257
 43
1.0
 76
     1
 77
     6
 78
     2
 67
     7
 79
     5
170
     0
171
     0
290
     0
174
     0
 93
       13
 44
0.0
173
     0
291
     1
 45
0.0
1001
ACAD
1000
AcDbSavedByObjectVersion
1070
     0
  0
VISUALSTYLE
  5
38
102
{ACAD_REACTORS
330
2A
102
}
330
2A
100
AcDbVisualStyle
  2
Linepattern
 70
    14
 71
     2
 72
     2
 73
     0
 90
        0
 40
-0.6
 41
-30.0
 62
     5
 63
     7
421
 16777215
 74
     1
 91
        4
 64
     7
 65
   257
 75
     7
175
     7
 42
1.0
 92
        8
 66
     7
 43
1.0
 76
     1
 77
     6
 78
     2
 67
     7
 79
     5
170
     0
171
     0
290
     0
174
     0
 93
        1
 44
0.0
173
     0
291
     1
 45
0.0
1001
ACAD
1000
AcDbSavedByObjectVersion
1070
     0
  0
VISUALSTYLE
  5
33
102
{ACAD_REACTORS
330
2A
102
}
330
2A
100
AcDbVisualStyle
  2
Realistic
 70
     8
 71
     2
 72
     2
 73
     0
 90
        0
 40
-0.6
 41
-30.0
 62
     5
 63
     7
421
 16777215
 74
     1
 91
        0
 64
     7
 65
   257
 75
     1
175
     1
 42
1.0
 92
        8
 66
     8
424
  7895160
 43
1.0
 76
     1
 77
     6
 78
     2
 67
     7
 79
     5
170
     0
171
     0
290
     0
174
     0
 93
       13
 44
0.0
173
     0
291
     0
 45
0.0
1001
ACAD
1000
AcDbSavedByObjectVersion
1070
     0
  0
VISUALSTYLE
  5
37
102
{ACAD_REACTORS
330
2A
102
}
330
2A
100
AcDbVisualStyle
  2
Thicken
 70
    13
 71
     2
 72
     2
 73
     0
 90
        0
 40
-0.6
 41
-30.0
 62
     5
 63
     7
421
 16777215
 74
     1
 91
        4
 64
     7
 65
   257
 75
     1
175
     1
 42
1.0
 92
       12
 66
     7
 43
1.0
 76
     1
 77
     6
 78
     2
 67
     7
 79
     5
170
     0
171
     0
290
     0
174
     0
 93
        1
 44
0.0
173
     0
291
     1
 45
0.0
1001
ACAD
1000
AcDbSavedByObjectVersion
1070
     0
  0
ENDSEC
  0
EOF
